<?xml version="1.0" encoding="UTF-8"?>
<svg version="1.1" xmlns="http://www.w3.org/2000/svg" width="512" height="512">
<path d="M0 0 C1.37788193 0.00081573 1.37788193 0.00081573 2.78359985 0.00164795 C18.39125678 0.04394466 33.38475349 1.07742995 48.6875 4.375 C49.66589844 4.58398926 50.64429688 4.79297852 51.65234375 5.00830078 C80.28781227 11.3543085 109.00741535 22.85173736 132.6875 40.375 C133.64914062 41.06722656 134.61078125 41.75945312 135.6015625 42.47265625 C155.19990983 56.82958511 173.47369973 73.58857334 187.6875 93.375 C188.44933594 94.41527344 189.21117187 95.45554687 189.99609375 96.52734375 C207.32528025 120.82424475 219.89108763 147.94755816 227 176.9375 C227.34550903 178.33379639 227.34550903 178.33379639 227.69799805 179.75830078 C231.66844745 196.89024356 233.24811515 213.94797574 233.125 231.5 C233.12043793 232.89466492 233.12043793 232.89466492 233.11578369 234.31750488 C233.0405356 249.96308841 232.01017853 265.0397565 228.6875 280.375 C228.37401611 281.84042236 228.37401611 281.84042236 228.05419922 283.33544922 C221.71063255 311.96465459 210.22048434 340.70728616 192.6875 364.375 C191.97207031 365.35984375 191.25664062 366.3446875 190.51953125 367.359375 C188.28005026 370.39674336 186.02355787 373.41164496 183.6875 376.375 C182.73689697 377.5815625 182.73689697 377.5815625 181.76708984 378.8125 C176.26544074 385.67283627 170.41003216 392.03961798 164.1875 398.25 C163.47250839 398.96417587 163.47250839 398.96417587 162.74307251 399.69277954 C154.30260584 408.08939234 145.50033488 415.61784344 135.6875 422.375 C135.02540527 422.83874023 134.36331055 423.30248047 133.68115234 423.78027344 C103.28014094 444.91277372 68.3287635 458.25627073 31.6875 463.375 C31.02758057 463.4685376 30.36766113 463.5620752 29.68774414 463.65844727 C4.60258744 466.70330787 -22.66306675 465.68667609 -47.3125 460.375 C-48.78009766 460.06151611 -48.78009766 460.06151611 -50.27734375 459.74169922 C-78.91458954 453.39529764 -107.63133468 441.89708616 -131.3125 424.375 C-132.59235067 423.45298999 -133.87230678 422.53112635 -135.15234375 421.609375 C-142.77308284 416.06005695 -149.92833174 410.24510052 -156.76171875 403.75 C-159.2675536 401.35437318 -159.2675536 401.35437318 -161.9453125 399.28515625 C-164.07191901 397.56913218 -165.74890829 395.89670427 -167.5 393.8125 C-169.4637211 391.50248829 -171.43894722 389.24186245 -173.52734375 387.04296875 C-199.27931951 359.8719214 -216.76988392 323.976051 -225.625 287.8125 C-225.85525879 286.88179688 -226.08551758 285.95109375 -226.32275391 284.9921875 C-230.33947966 267.66397953 -231.87103107 250.43878909 -231.75 232.6875 C-231.74543793 231.25490341 -231.74543793 231.25490341 -231.74078369 229.79336548 C-231.66828618 214.33157937 -230.7234967 199.50623361 -227.3125 184.375 C-227.10351074 183.41513184 -226.89452148 182.45526367 -226.67919922 181.46630859 C-219.96960334 151.37615838 -207.58797338 122.29135706 -189.3125 97.375 C-188.90966797 96.8195752 -188.50683594 96.26415039 -188.09179688 95.69189453 C-182.7559704 88.38367261 -176.96740134 81.62225499 -170.77734375 75.02734375 C-168.81701132 72.91788936 -166.95195317 70.78554058 -165.125 68.5625 C-161.87812598 64.73779247 -158.14013813 61.60259585 -154.3125 58.375 C-153.38695312 57.56160156 -152.46140625 56.74820313 -151.5078125 55.91015625 C-137.6333447 43.78272884 -122.67296275 33.82749589 -106.3125 25.375 C-105.58401855 24.9924707 -104.85553711 24.60994141 -104.10498047 24.21582031 C-71.88112078 7.45741313 -36.1328835 -0.0809119 0 0 Z M-53.3125 23.375 C-54.47869873 23.65102051 -54.47869873 23.65102051 -55.66845703 23.93261719 C-108.77607324 36.99523159 -155.84698839 74.36997077 -183.9375 120.75 C-196.08140478 141.25128546 -205.0808913 163.10810868 -210.3125 186.375 C-210.52422852 187.3139209 -210.73595703 188.2528418 -210.95410156 189.22021484 C-217.04784398 217.7526427 -216.94286641 249.9865362 -210.3125 278.375 C-210.09819336 279.3124707 -209.88388672 280.24994141 -209.66308594 281.21582031 C-196.58879046 336.84342683 -161.33796962 385.79472477 -112.80102539 415.87133789 C-60.86340685 447.32785702 -1.67177523 455.09291346 57.11083984 440.78515625 C110.01568121 427.43522891 157.36158006 390.31737475 185.375 343.9375 C215.27836231 293.23695914 223.98146319 233.74170057 209.30908203 176.65576172 C206.09347776 164.78234563 201.90373005 153.50531735 196.6875 142.375 C196.20627686 141.33424316 196.20627686 141.33424316 195.71533203 140.27246094 C171.09521523 87.48112872 125.65581095 48.22973257 71.32470703 28.29785156 C30.7675798 14.10548525 -11.76142379 13.53492621 -53.3125 23.375 Z " fill="#000000" transform="translate(255.3125,23.625)"/>
<path d="M0 0 C4.17021968 1.81402666 8.03059803 4.05545332 11.9375 6.375 C13.60727905 7.33901733 13.60727905 7.33901733 15.31079102 8.32250977 C18.55073511 10.19816824 21.77685751 12.09565302 25 14 C26.49954735 14.87707645 27.99948356 15.75348878 29.5 16.62890625 C32.16161699 18.18639449 34.81666225 19.75447303 37.46875 21.328125 C43.09867855 24.66001908 48.7691917 27.92147673 54.4375 31.1875 C55.54472412 31.82550537 56.65194824 32.46351074 57.79272461 33.12084961 C60.06337068 34.42889477 62.33412358 35.73675448 64.60498047 37.04443359 C67.91579285 38.95149581 71.22569261 40.86012956 74.53515625 42.76953125 C76.13846802 43.69451416 76.13846802 43.69451416 77.77416992 44.63818359 C79.91920068 45.8762071 82.06389659 47.11481095 84.20825195 48.35400391 C89.24378624 51.26274528 94.28266386 54.16505921 99.33599854 57.04275513 C101.11819143 58.05807658 102.89911912 59.07558275 104.6796875 60.09375 C106.9089786 61.36763063 109.14060369 62.63743911 111.375 63.90234375 C124.30503627 71.30503627 124.30503627 71.30503627 129 76 C129.11198833 77.94771008 129.15302759 79.89951326 129.1673584 81.85038757 C129.17884918 83.12204269 129.19033997 84.39369781 129.20217896 85.70388794 C129.20980479 87.12640302 129.21727636 88.54891893 129.22460938 89.97143555 C129.23577898 91.4593684 129.24729212 92.94729871 129.25912476 94.43522644 C129.29575518 99.335688 129.32091321 104.23617572 129.34375 109.13671875 C129.34769587 109.96984722 129.35164173 110.8029757 129.35570717 111.66135049 C129.39213333 119.51630368 129.42358555 127.37126571 129.44481659 135.22627544 C129.47239072 145.28053658 129.52314226 155.33409208 129.60529089 165.38805932 C129.6610655 172.45307597 129.69005032 179.51790111 129.6992898 186.58313018 C129.70555109 190.80457719 129.72370383 195.02519782 129.77067566 199.24640465 C129.81434423 203.22017203 129.82483102 207.19266136 129.81004715 211.16662788 C129.81037585 212.62352744 129.82265658 214.08048184 129.84789658 215.53716278 C130.02788346 226.50568787 130.02788346 226.50568787 127.52001953 230.15155983 C125.74424168 231.71915102 124.0749668 232.86769233 122 234 C121.34228859 234.39993007 120.68457718 234.79986013 120.00693512 235.21190929 C118.05879461 236.37945434 116.07171557 237.44119416 114.0625 238.5 C112.45570145 239.36994414 110.85030419 240.24247997 109.24609375 241.1171875 C108.39515137 241.58092773 107.54420898 242.04466797 106.66748047 242.52246094 C101.93913843 245.14152794 97.28544005 247.88749554 92.625 250.625 C83.78301125 255.80884796 74.90577657 260.92688254 66 266 C56.29624767 271.52944119 46.62608753 277.11305104 36.98583984 282.75268555 C29.2134435 287.29800381 21.42352042 291.81221025 13.625 296.3125 C12.49433105 296.96549072 11.36366211 297.61848145 10.19873047 298.29125977 C9.15604004 298.89252686 8.11334961 299.49379395 7.0390625 300.11328125 C6.11303223 300.64735596 5.18700195 301.18143066 4.23291016 301.73168945 C0.06082202 304.10146836 -3.22678502 304.83433859 -8 304 C-12.18524064 302.22380639 -16.03227823 299.94354914 -19.9375 297.625 C-21.05068604 296.98232178 -22.16387207 296.33964355 -23.31079102 295.67749023 C-26.55073511 293.80183176 -29.77685751 291.90434698 -33 290 C-34.49954735 289.12292355 -35.99948356 288.24651122 -37.5 287.37109375 C-40.16161699 285.81360551 -42.81666225 284.24552697 -45.46875 282.671875 C-51.09867855 279.33998092 -56.7691917 276.07852327 -62.4375 272.8125 C-64.09833618 271.85549194 -64.09833618 271.85549194 -65.79272461 270.87915039 C-68.06337068 269.57110523 -70.33412358 268.26324552 -72.60498047 266.95556641 C-75.91579285 265.04850419 -79.22569261 263.13987044 -82.53515625 261.23046875 C-83.60403076 260.61381348 -84.67290527 259.9971582 -85.77416992 259.36181641 C-87.91920068 258.1237929 -90.06389659 256.88518905 -92.20825195 255.64599609 C-97.24378624 252.73725472 -102.28266386 249.83494079 -107.33599854 246.95724487 C-109.11819143 245.94192342 -110.89911912 244.92441725 -112.6796875 243.90625 C-114.9089786 242.63236937 -117.14060369 241.36256089 -119.375 240.09765625 C-134.8934868 231.2130264 -134.8934868 231.2130264 -137 227 C-137.10244032 225.03490887 -137.13951114 223.06630104 -137.14717102 221.09855652 C-137.15432632 219.84090988 -137.16148163 218.58326324 -137.16885376 217.2875061 C-137.17169415 215.88592554 -137.17440586 214.48434471 -137.17700195 213.08276367 C-137.18326558 211.6127659 -137.18991229 210.14276971 -137.19691467 208.67277527 C-137.2143333 204.67269107 -137.22487871 200.67261883 -137.2331202 196.67250609 C-137.23826838 194.17421431 -137.24434418 191.67592625 -137.25063133 189.1776371 C-137.26968555 181.36348373 -137.28391637 173.54933982 -137.2922433 165.73516768 C-137.30201856 156.71047624 -137.32834448 147.68602988 -137.36874419 138.66142482 C-137.39888778 131.68896276 -137.41371048 124.71657104 -137.41702431 117.74404508 C-137.41937676 113.57822226 -137.42836216 109.4126612 -137.45348549 105.24690819 C-137.4767408 101.32753368 -137.48100993 97.40859375 -137.47072411 93.48916817 C-137.47022801 92.05123831 -137.47657016 90.61328725 -137.49028015 89.17542267 C-137.50796026 87.2111593 -137.49852025 85.2467078 -137.48774719 83.28239441 C-137.49013555 82.18344943 -137.4925239 81.08450445 -137.49498463 79.95225811 C-136.88043777 76.28688985 -135.55137026 74.65415523 -133 72 C-130.35644531 70.18579102 -130.35644531 70.18579102 -127.328125 68.50390625 C-125.63816406 67.55354492 -125.63816406 67.55354492 -123.9140625 66.58398438 C-122.69272023 65.91013468 -121.47136575 65.23630712 -120.25 64.5625 C-118.98108417 63.85213665 -117.71286368 63.14052992 -116.4453125 62.42773438 C-114.5068133 61.33767362 -112.56800032 60.24824259 -110.6270752 59.1625061 C-104.7073156 55.84960883 -98.84861061 52.43682777 -93 49 C-83.77525316 43.59625015 -74.50475955 38.27610946 -65.21603394 32.98352051 C-56.97132245 28.28454277 -48.75440721 23.5406124 -40.5625 18.75 C-39.59183594 18.18522949 -38.62117188 17.62045898 -37.62109375 17.03857422 C-32.76662886 14.21307284 -27.93125711 11.36128904 -23.12109375 8.4609375 C-21.24751641 7.34875519 -19.37382347 6.23676759 -17.5 5.125 C-16.65767822 4.60647461 -15.81535645 4.08794922 -14.94750977 3.55371094 C-10.07508926 0.68845002 -5.72809848 -1.50134189 0 0 Z M-9.96875 20.75390625 C-11.00128906 21.35332031 -12.03382813 21.95273438 -13.09765625 22.5703125 C-14.78181641 23.55644531 -14.78181641 23.55644531 -16.5 24.5625 C-17.67551594 25.24654988 -18.85130147 25.93013667 -20.02734375 26.61328125 C-22.47370926 28.03482132 -24.91889463 29.45836082 -27.36328125 30.88330078 C-32.89804993 34.10757154 -38.44981332 37.3023703 -44 40.5 C-46.1667481 41.74985884 -48.33341448 42.99985936 -50.5 44.25 C-57 48 -57 48 -63.5 51.75 C-64.57443359 52.36987793 -65.64886719 52.98975586 -66.75585938 53.62841797 C-68.90295136 54.86710002 -71.05008614 56.1057079 -73.19726562 57.34423828 C-78.29588809 60.2853335 -83.39405296 63.22721413 -88.49072266 66.17169189 C-90.91047665 67.56958601 -93.33047263 68.96706089 -95.75048828 70.36450195 C-97.46801052 71.35652324 -99.18518052 72.34915429 -100.90234375 73.34179688 C-101.93488281 73.93798828 -102.96742188 74.53417969 -104.03125 75.1484375 C-104.94455078 75.67614746 -105.85785156 76.20385742 -106.79882812 76.74755859 C-108.17988691 77.53336511 -109.57878495 78.28939248 -111 79 C-111 79.66 -111 80.32 -111 81 C-110.05253906 81.5261792 -110.05253906 81.5261792 -109.0859375 82.06298828 C-95.33297865 89.70985139 -81.66630949 97.48090039 -68.08984375 105.4375 C-61.7842955 109.13213328 -55.45703499 112.78849047 -49.125 116.4375 C-48.06007324 117.05133545 -46.99514648 117.6651709 -45.89794922 118.29760742 C-42.59885592 120.19879245 -39.29943126 122.09940156 -36 124 C-31.8036869 126.41783662 -27.60779716 128.83640662 -23.41229248 131.25564575 C-21.72901778 132.22606473 -20.04542113 133.19592519 -18.36181641 134.16577148 C-17.33878418 134.75559814 -16.31575195 135.3454248 -15.26171875 135.953125 C-14.36412842 136.47036133 -13.46653809 136.98759766 -12.54174805 137.52050781 C-10.77594596 138.54833998 -9.03522962 139.62000891 -7.31640625 140.72460938 C-5.0804005 142.29287845 -5.0804005 142.29287845 -2.67578125 141.453125 C-1.79277344 140.97359375 -0.90976562 140.4940625 0 140 C0.55896973 139.70673828 1.11793945 139.41347656 1.69384766 139.11132812 C3.75056743 138.0199423 5.78191711 136.8892672 7.8125 135.75 C8.59238281 135.31453857 9.37226563 134.87907715 10.17578125 134.43041992 C18.73353842 129.62754585 27.19617718 124.66206012 35.6640625 119.703125 C45.29579239 114.06547573 54.97232871 108.50541502 64.64306641 102.93505859 C68.13192703 100.92395246 71.61894828 98.90969005 75.10546875 96.89453125 C76.28205212 96.21474214 77.45864705 95.53497305 78.63525391 94.85522461 C80.85268378 93.57401834 83.06982559 92.29231333 85.28662109 91.01000977 C91.16097076 87.61742993 97.05612428 84.26936584 103 81 C103 80.34 103 79.68 103 79 C101.9790625 78.44054687 100.958125 77.88109375 99.90625 77.3046875 C90.00197797 71.85246465 80.20288134 66.23743204 70.44677734 60.5246582 C63.02161225 56.17689829 55.58004266 51.85882594 48.125 47.5625 C47.05556152 46.94608643 45.98612305 46.32967285 44.88427734 45.69458008 C42.70420235 44.43830165 40.52402588 43.18219929 38.34375 41.92626953 C33.73222575 39.26965984 29.1214786 36.61170443 24.51123047 33.95288086 C22.33335118 32.69687102 20.15530494 31.44115061 17.97705078 30.18579102 C16.97657715 29.60885498 15.97610352 29.03191895 14.9453125 28.4375 C13.48786621 27.59832031 13.48786621 27.59832031 12.00097656 26.7421875 C9.87646335 25.5088222 7.75930869 24.26274096 5.64746094 23.0078125 C4.5649707 22.36585937 3.48248047 21.72390625 2.3671875 21.0625 C0.89548096 20.18271484 0.89548096 20.18271484 -0.60595703 19.28515625 C-4.67143146 17.10275187 -6.17014829 18.53727337 -9.96875 20.75390625 Z M-120 95 C-120.30407485 111.02900978 -120.53310929 127.05708041 -120.67355824 143.08827972 C-120.74051439 150.53249171 -120.83173743 157.97490908 -120.98071289 165.41796875 C-121.11054543 171.90772668 -121.19421337 178.39618507 -121.22315043 184.8872056 C-121.24006202 188.32306276 -121.27959415 191.75520356 -121.37449074 195.18986511 C-122.41265633 208.51736403 -122.41265633 208.51736403 -118.75935555 220.89790154 C-115.34971106 224.19494492 -111.47614647 225.52855335 -107 227 C-104.96105349 228.13524717 -102.94220542 229.30830152 -100.95703125 230.53515625 C-98.90995526 231.71285349 -96.86174178 232.88857538 -94.8125 234.0625 C-93.10957218 235.04151113 -91.4066462 236.02052547 -89.7038269 236.99972534 C-87.95604539 238.00447299 -86.20779404 239.00839914 -84.45947266 240.01220703 C-78.96860792 243.16722614 -73.48446333 246.33387057 -68 249.5 C-61.37362335 253.32472452 -54.74590825 257.14705996 -48.11328125 260.9609375 C-45.84625229 262.26544797 -43.57932355 263.57013262 -41.3125 264.875 C-40.22904297 265.49834229 -39.14558594 266.12168457 -38.02929688 266.76391602 C-31.36074932 270.60984963 -24.72612014 274.50457218 -18.18481445 278.56396484 C-15.30621386 280.44243582 -15.30621386 280.44243582 -12 281 C-11.43737532 265.07579119 -11.01523511 249.15429393 -10.75650787 233.22259331 C-10.63312896 225.82322471 -10.46527109 218.43005358 -10.18945312 211.03466797 C-9.94891777 204.58217832 -9.79512671 198.1341731 -9.74187613 191.67732537 C-9.7107591 188.26073255 -9.63878706 184.8569538 -9.46247864 181.44451523 C-8.76141327 168.92191236 -8.76141327 168.92191236 -12 157 C-17.8261553 150.80158673 -25.46315869 147.40375763 -33.21184158 144.18690681 C-36.72681021 142.69060008 -39.86412084 140.87450727 -43.1171875 138.87890625 C-45.03610652 137.77282692 -46.95536872 136.66734273 -48.875 135.5625 C-51.05990538 134.30340198 -53.24480092 133.04428689 -55.4296875 131.78515625 C-56.51475586 131.16012207 -57.59982422 130.53508789 -58.71777344 129.89111328 C-63.06597322 127.38582055 -67.41271584 124.87800679 -71.75927734 122.36987305 C-73.90786731 121.1301525 -76.05662845 119.89072856 -78.20556641 118.65161133 C-83.26866972 115.73189098 -88.33042612 112.80990632 -93.38757324 109.87988281 C-95.76812173 108.50081969 -98.14941306 107.12304215 -100.53076172 105.74536133 C-102.2048265 104.77615342 -103.87781912 103.80509435 -105.55078125 102.83398438 C-106.57042969 102.24423828 -107.59007812 101.65449219 -108.640625 101.046875 C-109.53297852 100.52963867 -110.42533203 100.01240234 -111.34472656 99.47949219 C-114.18839822 97.89502637 -117.08481429 96.44783016 -120 95 Z M106.12890625 97.75390625 C105.09314453 98.35332031 104.05738281 98.95273438 102.99023438 99.5703125 C101.29350586 100.55644531 101.29350586 100.55644531 99.5625 101.5625 C98.38229328 102.24632132 97.20195274 102.92991171 96.02148438 103.61328125 C93.56474459 105.03572203 91.10858885 106.4591637 88.65283203 107.88330078 C83.10726792 111.09818687 77.55324559 114.29840773 72 117.5 C69.83329261 118.74992941 67.6666261 119.99992968 65.5 121.25 C52.5 128.75 52.5 128.75 49.24438477 130.62817383 C47.09635954 131.86746267 44.94840925 133.10688141 42.80053711 134.34643555 C37.71344451 137.28202567 32.62558153 140.21625672 27.5350647 143.14590454 C25.12456252 144.53328095 22.71448624 145.92139624 20.30444336 147.30957031 C18.59856032 148.29173815 16.89206014 149.27283385 15.18554688 150.25390625 C14.15623047 150.846875 13.12691406 151.43984375 12.06640625 152.05078125 C11.15834229 152.57325439 10.25027832 153.09572754 9.31469727 153.6340332 C7.50873799 154.69977966 5.74478871 155.83680752 4 157 C3.5528799 159.26815542 3.5528799 159.26815542 3.63923645 161.94802856 C3.63511246 162.994133 3.63098846 164.04023743 3.6267395 165.11804199 C3.63752533 166.27034302 3.64831116 167.42264404 3.65942383 168.60986328 C3.65898575 169.81959808 3.65854767 171.02933289 3.65809631 172.27572632 C3.65983142 175.59803394 3.67490268 178.91978609 3.69581819 182.24199533 C3.71453979 185.71200336 3.71633185 189.18201835 3.71989441 192.65206909 C3.72922821 199.22527769 3.75385991 205.79833706 3.78394288 212.37147987 C3.81744548 219.85382957 3.83396245 227.33618631 3.84902918 234.81859231 C3.88040842 250.21248138 3.93319468 265.60622146 4 281 C7.79130874 279.52122382 11.23693832 277.82498817 14.76953125 275.796875 C15.89294922 275.15363281 17.01636719 274.51039063 18.17382812 273.84765625 C19.38678495 273.14855234 20.59967384 272.44933056 21.8125 271.75 C23.07606103 271.02454649 24.33973448 270.29928874 25.60351562 269.57421875 C34.39789082 264.52301311 43.1613075 259.41923934 51.9128418 254.29418945 C59.61933505 249.78721873 67.36713019 245.3550934 75.125 240.9375 C84.01521984 235.87339263 92.87661441 230.76376472 101.6875 225.5625 C102.62029785 225.01263428 103.5530957 224.46276855 104.51416016 223.89624023 C108.47616126 221.74460361 108.47616126 221.74460361 112 219 C112.09600136 217.393108 112.12187889 215.78198231 112.12025452 214.17222595 C112.12162918 213.12749619 112.12300385 212.08276642 112.12442017 211.00637817 C112.12082489 209.85048187 112.11722961 208.69458557 112.11352539 207.50366211 C112.11367142 206.29407333 112.11381744 205.08448456 112.1139679 203.83824158 C112.11338893 200.51193649 112.10835973 197.18569281 112.10139394 193.8593986 C112.09515978 190.38670071 112.09455655 186.91400207 112.09336853 183.44129944 C112.0902554 176.86103807 112.08204225 170.28079324 112.07201904 163.70053917 C112.06085734 156.21093888 112.05534731 148.72133782 112.05032361 141.2317313 C112.03985962 125.82114461 112.02226053 110.41057443 112 95 C109.93260459 95 107.84166342 96.76014354 106.12890625 97.75390625 Z " fill="#000000" transform="translate(260,104)"/>
</svg>
