<?xml version="1.0" encoding="UTF-8"?>
<svg version="1.1" xmlns="http://www.w3.org/2000/svg" width="512" height="512">
<path d="M0 0 C1.71737114 -0.01925285 1.71737114 -0.01925285 3.46943665 -0.03889465 C4.712108 -0.04628159 5.95477936 -0.05366852 7.23510742 -0.0612793 C8.50778976 -0.06935104 9.78047211 -0.07742279 11.09172058 -0.08573914 C13.78937429 -0.09959031 16.48690536 -0.11060365 19.18457031 -0.11816406 C22.63475867 -0.12922073 26.08430066 -0.16361141 29.53426075 -0.20333576 C32.83031217 -0.23581778 36.12642034 -0.24028239 39.42260742 -0.2487793 C40.65920609 -0.26628738 41.89580475 -0.28379547 43.1698761 -0.30183411 C44.32424667 -0.29890854 45.47861725 -0.29598297 46.66796875 -0.29296875 C47.68119705 -0.29883499 48.69442535 -0.30470123 49.73835754 -0.31074524 C53.27969492 0.30841303 54.9538247 1.72068462 57.52807617 4.17700195 C58.84749956 6.81584872 58.65097488 8.77624936 58.64833069 11.73245239 C58.65039268 13.50354874 58.65039268 13.50354874 58.65249634 15.3104248 C58.64890106 16.61233765 58.64530579 17.91425049 58.64160156 19.25561523 C58.6413196 20.63520302 58.64147759 22.01479096 58.64204407 23.39437866 C58.64233171 27.14621976 58.63644037 30.89802907 58.62947011 34.64986277 C58.62323101 38.56832119 58.62263233 42.48678029 58.6214447 46.40524292 C58.61833303 53.82837011 58.61012185 61.25148262 58.60009521 68.67460334 C58.58892899 77.12430556 58.58342234 85.57400846 58.57839978 94.02371621 C58.5679391 111.40815353 58.55014207 128.79257563 58.52807617 146.17700195 C64.46807617 145.84700195 70.40807617 145.51700195 76.52807617 145.17700195 C80.61578851 132.00142915 83.13792882 119.52205494 83.21557617 105.67700195 C83.23426758 104.45601807 83.25295898 103.23503418 83.2722168 101.97705078 C83.17635111 94.46774582 81.97875444 90.14190288 77.52807617 84.17700195 C73.03726564 73.76997003 73.84690587 65.00828541 77.73120117 54.5246582 C83.33463679 40.44749564 92.59184401 17.80115673 105.52807617 9.17700195 C111.11824011 8.54585441 111.11824011 8.54585441 113.52807617 9.17700195 C128.38831264 21.97136037 142.48638393 48.49908218 144.85229492 67.82543945 C145.18114687 75.1962589 143.82462275 82.5035146 138.95776367 88.16918945 C135.21044637 93.284913 135.74396437 99.0054709 135.84057617 105.11450195 C135.84766602 106.33766113 135.85475586 107.56082031 135.86206055 108.82104492 C136.14364503 120.42142712 138.57662433 131.1411626 141.97729492 142.19116211 C142.52807617 144.17700195 142.52807617 144.17700195 142.52807617 146.17700195 C143.09326462 146.17034012 143.65845306 146.16367828 144.24076843 146.15681458 C150.12936712 146.09038471 156.01785914 146.04516964 161.90673828 146.01220703 C164.10372238 145.99713144 166.30067644 145.97666769 168.49755859 145.95068359 C171.65754617 145.91424693 174.81713542 145.89726311 177.97729492 145.8840332 C179.44787605 145.86080742 179.44787605 145.86080742 180.94816589 145.83711243 C189.59263939 145.83498466 189.59263939 145.83498466 193.52807617 149.17700195 C203.21200098 163.70288916 196.63202472 199.83177063 193.52807617 216.17700195 C189.84759303 234.22121977 183.69221888 260.92098778 169.53979492 274.0168457 C166.28561276 275.8935294 163.10108776 276.03141777 159.52807617 275.17700195 C155.74947072 272.09242607 155.74947072 272.09242607 154.52807617 269.17700195 C154.76211626 263.30199562 155.92794437 259.86407886 159.15307617 254.86450195 C169.26955617 238.2707282 174.19402547 218.3162177 176.52807617 199.17700195 C176.64022461 198.28625977 176.75237305 197.39551758 176.86791992 196.4777832 C177.95730182 186.01673234 177.52807617 175.78040501 177.52807617 165.17700195 C86.77807617 164.84700195 -3.97192383 164.51700195 -97.47192383 164.17700195 C-97.47192383 167.47700195 -97.47192383 170.77700195 -97.47192383 174.17700195 C-97.64564347 181.60649082 -99.37698863 187.11347742 -102.81176758 193.6730957 C-103.25275284 194.54611832 -103.6937381 195.41914093 -104.14808655 196.31861877 C-105.55358994 199.09182436 -106.98106644 201.853011 -108.40942383 204.61450195 C-109.33339771 206.43082344 -110.25593464 208.24787667 -111.17700195 210.06567383 C-116.87851615 221.28453029 -122.7267247 232.4267539 -128.61598206 243.54798889 C-129.24795636 244.75075108 -129.86430085 245.961756 -130.47192383 247.17700195 C-129.40756104 247.15081787 -128.34319824 247.12463379 -127.24658203 247.09765625 C-123.28651056 247.0069542 -119.32653032 246.94968106 -115.36572266 246.90234375 C-113.65365138 246.87724481 -111.94168679 246.84315766 -110.22998047 246.79980469 C-107.76478738 246.73894456 -105.30101397 246.71074763 -102.83520508 246.6887207 C-101.69273064 246.65001106 -101.69273064 246.65001106 -100.5271759 246.61051941 C-96.54114802 246.60842973 -94.685011 247.01415838 -91.48266602 249.46142578 C-88.59787476 253.35743515 -88.79311054 256.57735649 -89.47192383 261.17700195 C-90.76024938 267.14130374 -92.4232482 272.99932908 -94.0715332 278.87231445 C-97.02327548 289.91600476 -96.87198968 296.3635115 -91.40942383 306.30200195 C-87.65358051 313.73937205 -86.54296456 319.6380922 -87.28686523 328.04907227 C-87.57937822 331.41258568 -87.76144408 334.78134111 -87.94482422 338.15234375 C-88.04441439 339.92818203 -88.15892353 341.70326147 -88.29003906 343.47705078 C-88.34232666 344.28940186 -88.39461426 345.10175293 -88.44848633 345.9387207 C-88.50085449 346.66019287 -88.55322266 347.38166504 -88.60717773 348.125 C-88.44461781 350.59127466 -87.77878291 352.09152224 -86.47192383 354.17700195 C-77.53384598 358.64604088 -59.5708575 354.86368875 -49.65942383 354.17700195 C-48.79261993 354.11720154 -47.92581604 354.05740112 -47.03274536 353.99578857 C-32.65856102 352.95746909 -18.57015537 350.95839246 -4.40942383 348.30200195 C-3.52048431 348.13732422 -2.6315448 347.97264648 -1.71566772 347.80297852 C17.37581768 344.22001309 37.94466988 340.24900072 51.52807617 325.17700195 C53.21522408 322.65973115 54.7196572 320.09309188 56.20776367 317.4543457 C57.98695362 314.38550623 59.62921534 312.24761683 62.52807617 310.17700195 C65.36582844 309.48204221 67.69209656 309.47372475 70.52807617 310.17700195 C74.11119173 312.6403939 75.314749 314.08903335 76.15307617 318.36450195 C73.9868037 331.57876406 63.61168649 341.51825723 53.15307617 349.05200195 C37.96054419 358.95939604 21.51275893 362.83414317 3.94433594 366.04223633 C1.80220746 366.43401937 -0.3378002 366.83617975 -2.4777832 367.23950195 C-12.90610538 369.17700195 -12.90610538 369.17700195 -17.47192383 369.17700195 C-17.38104492 370.03865967 -17.29016602 370.90031738 -17.1965332 371.78808594 C-16.85738251 375.02501842 -16.52242592 378.26235151 -16.19018555 381.5 C-16.04632333 382.89372553 -15.90085339 384.28728618 -15.75366211 385.68066406 C-13.53813653 406.68294227 -13.53813653 406.68294227 -16.34692383 411.17700195 C-18.92450405 413.60295981 -19.80710551 414.13364424 -23.34692383 414.36450195 C-26.43267537 414.17935686 -27.9821595 413.95540505 -30.47192383 412.17700195 C-32.42008185 409.00392719 -32.9023736 406.12266022 -33.32348633 402.45043945 C-33.45239258 401.33540039 -33.58129883 400.22036133 -33.71411133 399.0715332 C-33.84043945 397.91008789 -33.96676758 396.74864258 -34.09692383 395.55200195 C-34.29801758 393.84463867 -34.29801758 393.84463867 -34.50317383 392.1027832 C-35.25538432 385.41732058 -35.54264916 378.90009946 -35.47192383 372.17700195 C-37.31753906 372.31332031 -37.31753906 372.31332031 -39.20043945 372.45239258 C-43.79234974 372.79077731 -48.38453341 373.12532033 -52.97680664 373.45874023 C-54.95930445 373.60320983 -56.94172798 373.74870266 -58.92407227 373.89526367 C-61.7835805 374.10649368 -64.6433411 374.31396732 -67.50317383 374.52075195 C-68.38058228 374.58637329 -69.25799072 374.65199463 -70.1619873 374.71960449 C-80.81696349 375.48122152 -90.06261211 376.07698531 -98.78442383 368.98950195 C-103.99700511 364.08842951 -107.20348094 357.93971385 -107.60913086 350.74267578 C-107.60155003 346.13479211 -107.46878344 341.63932396 -106.90161133 337.0637207 C-105.50563068 324.8764958 -106.99487921 316.53044628 -112.86401367 305.67382812 C-118.45288306 295.2693115 -116.44518325 287.72404561 -113.47192383 276.61450195 C-113.18575195 275.51041992 -112.89958008 274.40633789 -112.60473633 273.26879883 C-111.90344971 270.56884535 -111.19235131 267.87189891 -110.47192383 265.17700195 C-111.22812012 265.1927124 -111.98431641 265.20842285 -112.76342773 265.22460938 C-116.20784959 265.28718242 -119.65215157 265.32606401 -123.09692383 265.36450195 C-124.88163086 265.40220703 -124.88163086 265.40220703 -126.70239258 265.44067383 C-133.78233849 265.50000298 -138.90499302 265.46725259 -144.33520508 260.45825195 C-144.81344727 259.87043945 -145.29168945 259.28262695 -145.78442383 258.67700195 C-146.27555664 258.08918945 -146.76668945 257.50137695 -147.27270508 256.89575195 C-150.1767824 252.73355644 -150.03420058 248.03537963 -149.47192383 243.17700195 C-148.42332746 239.82619646 -146.88423799 236.79627564 -145.28442383 233.67700195 C-144.82044189 232.72486816 -144.35645996 231.77273438 -143.87841797 230.79174805 C-140.91358792 224.77912985 -137.77769092 218.88031805 -134.54789734 213.00718689 C-119.47929779 186.28534237 -119.47929779 186.28534237 -115.55297852 156.34741211 C-115.42905444 153.02908376 -114.36989222 150.85524624 -112.47192383 148.17700195 C-109.21042138 146.03951241 -106.56678032 145.96045775 -102.72192383 146.05200195 C-101.73708008 146.07004883 -100.75223633 146.0880957 -99.73754883 146.10668945 C-98.98989258 146.12989258 -98.24223633 146.1530957 -97.47192383 146.17700195 C-97.52299789 145.40742157 -97.57407196 144.63784119 -97.62669373 143.84494019 C-100.49326598 98.45626314 -98.00344829 64.28223703 -75.79995728 23.67172241 C-73.97111842 20.23623536 -72.31203801 16.72354301 -70.66459656 13.19795227 C-69.47192383 11.17700195 -69.47192383 11.17700195 -66.47192383 9.17700195 C-59.48772039 8.38846286 -59.48772039 8.38846286 -56.17700195 10.95849609 C-52.09413564 15.19693449 -50.26799382 20.87773518 -48.05786133 26.23168945 C-47.56154205 27.40659943 -47.06522278 28.5815094 -46.55386353 29.79202271 C-45.24094006 32.90603335 -43.93869769 36.02407239 -42.64154053 39.14465332 C-41.32548431 42.30363304 -39.99586903 45.45689 -38.66723633 48.6105957 C-36.3252108 54.17571578 -33.99394991 59.74520451 -31.67221069 65.31881714 C-30.78619773 67.42863679 -29.83326866 69.51064467 -28.84492493 71.57450867 C-27.35325089 75.48837713 -27.10903246 78.31631544 -27.13134766 82.48925781 C-27.13069054 83.52954636 -27.13069054 83.52954636 -27.13002014 84.59085083 C-27.13209186 86.85814663 -27.15534453 89.12468087 -27.17895508 91.3918457 C-27.18455682 92.97367448 -27.18882419 94.5555085 -27.19181824 96.13734436 C-27.20322154 100.28189702 -27.23264923 104.42612962 -27.26593018 108.57055664 C-27.29672895 112.80716626 -27.31034445 117.04382806 -27.32543945 121.28051758 C-27.35752386 129.57950828 -27.41025428 137.87817831 -27.47192383 146.17700195 C-22.19192383 146.17700195 -16.91192383 146.17700195 -11.47192383 146.17700195 C-11.48080627 144.43417435 -11.48968872 142.69134674 -11.49884033 140.89570618 C-11.57984993 124.48879371 -11.64009295 108.08192964 -11.67917252 91.67486286 C-11.69979877 83.23937765 -11.72792047 74.80404173 -11.77368164 66.36865234 C-11.8135476 59.01645327 -11.83935619 51.66436231 -11.84827781 44.31205815 C-11.85349301 40.41892977 -11.86575159 36.52611069 -11.89484406 32.63308144 C-11.92200959 28.96818665 -11.93036669 25.30372835 -11.92435455 21.63874245 C-11.92597837 19.65366676 -11.94749527 17.66863853 -11.96960449 15.6836853 C-11.96410583 14.49883041 -11.95860718 13.31397552 -11.95294189 12.09321594 C-11.95662907 11.06541677 -11.96031624 10.03761759 -11.96411514 8.97867298 C-11.34095988 5.43152372 -9.9345352 3.75457816 -7.47192383 1.17700195 C-4.86428055 -0.12681969 -2.92027555 0.02843947 0 0 Z M6.52807617 18.17700195 C6.52807617 23.45700195 6.52807617 28.73700195 6.52807617 34.17700195 C8.61120117 34.44512695 10.69432617 34.71325195 12.84057617 34.98950195 C18.93805184 35.77432555 18.93805184 35.77432555 21.42260742 37.4699707 C22.84020427 39.65898068 22.92903774 41.08084556 22.90307617 43.67700195 C22.91081055 44.45043945 22.91854492 45.22387695 22.92651367 46.02075195 C22.52807617 48.17700195 22.52807617 48.17700195 21.42260742 49.8840332 C17.26468052 52.72171115 11.36294557 52.55469203 6.52807617 53.17700195 C6.52807617 58.45700195 6.52807617 63.73700195 6.52807617 69.17700195 C9.37432617 69.30075195 9.37432617 69.30075195 12.27807617 69.42700195 C15.98592064 69.58821258 17.91053454 69.70668879 20.88745117 71.97387695 C22.62981195 74.31361857 23.07290952 75.3076677 23.02807617 78.17700195 C23.03838867 78.83700195 23.04870117 79.49700195 23.05932617 80.17700195 C22.26937209 83.15094673 20.95938864 84.32534014 18.52807617 86.17700195 C14.50932852 86.98908049 10.6436718 86.99806301 6.52807617 87.17700195 C6.52807617 92.45700195 6.52807617 97.73700195 6.52807617 103.17700195 C9.12682617 103.36262695 9.12682617 103.36262695 11.77807617 103.55200195 C15.49573467 103.81754899 18.35085157 104.15115691 21.52807617 106.17700195 C22.69150844 108.50386649 22.72703606 110.02421609 22.77807617 112.61450195 C22.80385742 113.39696289 22.82963867 114.17942383 22.85620117 114.9855957 C22.52807617 117.17700195 22.52807617 117.17700195 21.43041992 118.91918945 C17.28129141 121.66255574 11.29684123 120.94092447 6.52807617 121.17700195 C6.52807617 129.42700195 6.52807617 137.67700195 6.52807617 146.17700195 C17.74807617 146.17700195 28.96807617 146.17700195 40.52807617 146.17700195 C40.52807617 103.93700195 40.52807617 61.69700195 40.52807617 18.17700195 C29.30807617 18.17700195 18.08807617 18.17700195 6.52807617 18.17700195 Z M109.52807617 35.17700195 C102.39533142 44.28420892 94.94192597 56.79742434 92.52807617 68.17700195 C93.18807617 71.14700195 93.84807617 74.11700195 94.52807617 77.17700195 C104.42807617 77.17700195 114.32807617 77.17700195 124.52807617 77.17700195 C126.85229489 71.36645515 126.80877854 67.63452497 124.69067383 61.91625977 C123.63674899 59.5091662 122.50990354 57.15513091 121.34057617 54.80200195 C120.93709961 53.97144287 120.53362305 53.14088379 120.11791992 52.28515625 C115.79386098 43.45789232 115.79386098 43.45789232 110.52807617 35.17700195 C110.19807617 35.17700195 109.86807617 35.17700195 109.52807617 35.17700195 Z M-63.47192383 42.17700195 C-65.04076911 45.86052625 -66.60729014 49.54502908 -68.17163086 53.23046875 C-68.70451532 54.48497435 -69.23804255 55.73920712 -69.7722168 56.99316406 C-70.53837932 58.79201133 -71.30206583 60.59191256 -72.06567383 62.3918457 C-72.52651367 63.4758667 -72.98735352 64.5598877 -73.4621582 65.67675781 C-74.53433708 67.88213267 -74.53433708 67.88213267 -74.47192383 69.17700195 C-66.55192383 69.17700195 -58.63192383 69.17700195 -50.47192383 69.17700195 C-51.73004883 66.02137695 -52.98817383 62.86575195 -54.28442383 59.61450195 C-54.67476807 58.63408936 -55.0651123 57.65367676 -55.46728516 56.64355469 C-57.40494818 51.79177241 -59.38856205 46.96807682 -61.47192383 42.17700195 C-62.13192383 42.17700195 -62.79192383 42.17700195 -63.47192383 42.17700195 Z M-79.47192383 87.17700195 C-79.47192383 106.64700195 -79.47192383 126.11700195 -79.47192383 146.17700195 C-68.25192383 146.17700195 -57.03192383 146.17700195 -45.47192383 146.17700195 C-45.47192383 126.70700195 -45.47192383 107.23700195 -45.47192383 87.17700195 C-56.69192383 87.17700195 -67.91192383 87.17700195 -79.47192383 87.17700195 Z M101.52807617 96.17700195 C101.52807617 101.45700195 101.52807617 106.73700195 101.52807617 112.17700195 C106.80807617 112.17700195 112.08807617 112.17700195 117.52807617 112.17700195 C117.52807617 106.89700195 117.52807617 101.61700195 117.52807617 96.17700195 C112.24807617 96.17700195 106.96807617 96.17700195 101.52807617 96.17700195 Z M99.52807617 130.17700195 C98.20807617 135.45700195 96.88807617 140.73700195 95.52807617 146.17700195 C104.76807617 146.17700195 114.00807617 146.17700195 123.52807617 146.17700195 C122.20807617 140.89700195 120.88807617 135.61700195 119.52807617 130.17700195 C112.92807617 130.17700195 106.32807617 130.17700195 99.52807617 130.17700195 Z " fill="#000000" transform="translate(232.471923828125,48.822998046875)"/>
<path d="M0 0 C0.77085937 -0.03738281 1.54171875 -0.07476562 2.3359375 -0.11328125 C5.73397814 0.5187775 6.56509961 1.49436833 8.625 4.3125 C9.48404973 7.9617944 9.75828829 11.64917582 10.08203125 15.37890625 C11.03096621 24.58396552 12.25278658 33.66826939 13.88671875 42.77734375 C14.08411652 43.88671295 14.28151428 44.99608215 14.4848938 46.1390686 C15.295659 50.6659196 16.11918626 55.19039577 16.94458008 59.71459961 C17.55746287 63.08843478 18.1599602 66.4640096 18.76171875 69.83984375 C18.9491716 70.84724106 19.13662445 71.85463837 19.32975769 72.89256287 C22.18309364 88.95175206 22.18309364 88.95175206 18.5625 94.4375 C14.85697622 96.80272795 12.94938094 97.00748979 8.625 96.3125 C5.51053665 94.3263611 3.90768695 93.04623854 2.56767273 89.56811523 C2.3696254 88.53372314 2.17157806 87.49933105 1.9675293 86.43359375 C1.73778412 85.27714355 1.50803894 84.12069336 1.27133179 82.92919922 C1.0580423 81.73568848 0.84475281 80.54217773 0.625 79.3125 C0.4148526 78.19504395 0.2047052 77.07758789 -0.0118103 75.92626953 C-0.65581889 72.41366786 -1.26127899 68.89636005 -1.85546875 65.375 C-2.07318436 64.09246338 -2.29089996 62.80992676 -2.51521301 61.48852539 C-2.9710473 58.79655371 -3.42340231 56.10402253 -3.8737793 53.41113281 C-4.44542131 49.99756394 -5.0305554 46.58645556 -5.61892223 43.17573547 C-6.18638778 39.86873455 -6.73862062 36.5592246 -7.29296875 33.25 C-7.60695869 31.44317749 -7.60695869 31.44317749 -7.92729187 29.59985352 C-11.16487449 9.91680241 -11.16487449 9.91680241 -7.98014832 3.50366211 C-5.61267212 0.2718585 -3.8431997 0.121297 0 0 Z " fill="#000000" transform="translate(366.375,366.6875)"/>
<path d="M0 0 C3.2123274 0.08176833 4.23876624 0.40554159 7.125 2.125 C10.83452605 6.17175569 10.40573112 10.7003552 10.34375 15.96875 C10.1056071 19.63615061 9.1913488 22.1353072 6.890625 24.9765625 C4.17930165 27.20283259 1.73293758 26.84446545 -1.65234375 26.734375 C-3.8125 26.375 -3.8125 26.375 -6.3125 24.5625 C-8.81950932 20.90644475 -8.99771653 17.8296952 -9.0625 13.5 C-9.10117187 11.95699219 -9.10117187 11.95699219 -9.140625 10.3828125 C-8.50996059 4.60172208 -5.8766299 0.57802917 0 0 Z " fill="#000000" transform="translate(332.8125,272.625)"/>
<path d="M0 0 C3.2123274 0.08176833 4.23876624 0.40554159 7.125 2.125 C10.83452605 6.17175569 10.40573112 10.7003552 10.34375 15.96875 C10.1056071 19.63615061 9.1913488 22.1353072 6.890625 24.9765625 C4.17930165 27.20283259 1.73293758 26.84446545 -1.65234375 26.734375 C-3.8125 26.375 -3.8125 26.375 -6.3125 24.5625 C-8.81950932 20.90644475 -8.99771653 17.8296952 -9.0625 13.5 C-9.10117187 11.95699219 -9.10117187 11.95699219 -9.140625 10.3828125 C-8.50996059 4.60172208 -5.8766299 0.57802917 0 0 Z " fill="#000000" transform="translate(332.8125,229.625)"/>
<path d="M0 0 C3.34265205 1.20706879 3.94704566 1.92056849 6 5 C6.30123274 7.84433225 6.46152693 10.52799306 6.5 13.375 C6.54125 14.13039062 6.5825 14.88578125 6.625 15.6640625 C6.7009393 21.09372273 6.7009393 21.09372273 4.73657227 23.63354492 C2.20167236 25.83710589 0.24888292 26.95428681 -3.0625 27.5625 C-6.67781108 26.87020639 -8.38108416 25.54408967 -11 23 C-12.49352829 20.01294343 -12.26567862 16.9618749 -12.3125 13.6875 C-12.34988281 12.37136719 -12.38726562 11.05523437 -12.42578125 9.69921875 C-11.94219336 5.49777168 -10.96928843 3.93623513 -8 1 C-5.2201184 -0.3899408 -3.0813674 -0.18488204 0 0 Z " fill="#000000" transform="translate(431,135)"/>
<path d="M0 0 C1.13308594 -0.061875 1.13308594 -0.061875 2.2890625 -0.125 C7.71872273 -0.2009393 7.71872273 -0.2009393 10.25854492 1.76342773 C12.46210589 4.29832764 13.57928681 6.25111708 14.1875 9.5625 C13.49520639 13.17781108 12.16908967 14.88108416 9.625 17.5 C6.63794343 18.99352829 3.5868749 18.76567862 0.3125 18.8125 C-1.00363281 18.84988281 -2.31976563 18.88726562 -3.67578125 18.92578125 C-7.87722832 18.44219336 -9.43876487 17.46928843 -12.375 14.5 C-13.7649408 11.7201184 -13.55988204 9.5813674 -13.375 6.5 C-11.0366301 0.02451412 -6.12117553 0.08271859 0 0 Z " fill="#000000" transform="translate(105.375,74.5)"/>
<path d="M0 0 C0.72058594 -0.02900391 1.44117188 -0.05800781 2.18359375 -0.08789062 C5.75376715 -0.13062751 7.7072599 -0.01114848 10.5703125 2.20703125 C13.17590623 5.7357122 13.55625148 7.91373491 13.125 12.3125 C11.32506226 15.01240662 10.041227 16.8543865 7.125 18.3125 C4.67012577 18.48971577 2.26938336 18.58986821 -0.1875 18.625 C-1.50363281 18.66238281 -2.81976563 18.69976562 -4.17578125 18.73828125 C-8.37722832 18.25469336 -9.93876487 17.28178843 -12.875 14.3125 C-14.30162219 11.45925563 -14.18533868 9.47795451 -13.875 6.3125 C-9.88737572 0.33106358 -6.83978743 0.09079364 0 0 Z " fill="#000000" transform="translate(406.875,117.6875)"/>
<path d="M0 0 C2.69990662 1.79993774 4.5418865 3.083773 6 6 C6.17721577 8.45487423 6.27736821 10.85561664 6.3125 13.3125 C6.34988281 14.62863281 6.38726562 15.94476563 6.42578125 17.30078125 C5.93885575 21.53122569 5.07437714 23.10932905 2 26 C0.0703125 26.8828125 0.0703125 26.8828125 -1.875 27.125 C-2.51179688 27.23070313 -3.14859375 27.33640625 -3.8046875 27.4453125 C-7.38624545 26.7188043 -9.8491492 24.86439916 -12 22 C-12.80892552 19.1102535 -12.75296987 16.41919804 -12.625 13.4375 C-12.63144531 12.68275391 -12.63789062 11.92800781 -12.64453125 11.15039062 C-12.57462088 7.54365095 -12.32372169 5.41687426 -10.0859375 2.53515625 C-6.565842 -0.05547583 -4.3826831 -0.42967481 0 0 Z " fill="#000000" transform="translate(87,92)"/>
<path d="M0 0 C0.72058594 -0.02900391 1.44117188 -0.05800781 2.18359375 -0.08789062 C5.75376715 -0.13062751 7.7072599 -0.01114848 10.5703125 2.20703125 C13.17590623 5.7357122 13.55625148 7.91373491 13.125 12.3125 C11.32506226 15.01240662 10.041227 16.8543865 7.125 18.3125 C4.67012577 18.48971577 2.26938336 18.58986821 -0.1875 18.625 C-1.50363281 18.66238281 -2.81976563 18.69976562 -4.17578125 18.73828125 C-8.4063281 18.25134397 -9.98905793 17.39299996 -12.875 14.3125 C-14.02396404 11.64923312 -14.18331044 9.19006415 -13.875 6.3125 C-10.11773646 0.22314186 -6.72012081 0.08920514 0 0 Z " fill="#000000" transform="translate(449.875,117.6875)"/>
<path d="M0 0 C3.34265205 1.20706879 3.94704566 1.92056849 6 5 C6.24840297 7.6746645 6.37018158 10.20077613 6.375 12.875 C6.39949219 13.58269531 6.42398437 14.29039063 6.44921875 15.01953125 C6.46961588 18.67061814 6.11471152 20.81319117 4.19140625 23.9453125 C1.16891622 26.77923364 -0.90125837 27 -5 27 C-8.57387602 25.41161066 -9.81089572 24.28365642 -12 21 C-12.3359375 17.6015625 -12.3359375 17.6015625 -12.375 13.625 C-12.40335937 12.31789063 -12.43171875 11.01078125 -12.4609375 9.6640625 C-11.93767625 5.50457899 -10.9394989 3.91764389 -8 1 C-5.2201184 -0.3899408 -3.0813674 -0.18488204 0 0 Z " fill="#000000" transform="translate(431,92)"/>
<path d="M0 0 C1.06154297 -0.03673828 1.06154297 -0.03673828 2.14453125 -0.07421875 C5.79561814 -0.09461588 7.93819117 0.26028848 11.0703125 2.18359375 C13.90423364 5.20608378 14.125 7.27625837 14.125 11.375 C12.53661066 14.94887602 11.40865642 16.18589572 8.125 18.375 C4.7265625 18.7109375 4.7265625 18.7109375 0.75 18.75 C-0.55710937 18.77835938 -1.86421875 18.80671875 -3.2109375 18.8359375 C-7.37042101 18.31267625 -8.95735611 17.3144989 -11.875 14.375 C-13.2649408 11.5951184 -13.05988204 9.4563674 -12.875 6.375 C-10.59461914 0.06009916 -5.9965567 0.01080461 0 0 Z " fill="#000000" transform="translate(61.875,74.625)"/>
<path d="M0 0 C2.69990662 1.79993774 4.5418865 3.083773 6 6 C6.17721577 8.45487423 6.27736821 10.85561664 6.3125 13.3125 C6.34988281 14.62863281 6.38726562 15.94476563 6.42578125 17.30078125 C5.93884397 21.5313281 5.08049996 23.11405793 2 26 C-0.66326688 27.14896404 -3.12243585 27.30831044 -6 27 C-8.85993478 25.23535939 -10.49782849 24.00434303 -12 21 C-12.17704592 18.35882311 -12.27741548 15.76803404 -12.3125 13.125 C-12.34150391 12.40441406 -12.37050781 11.68382812 -12.40039062 10.94140625 C-12.44312751 7.37123285 -12.32364848 5.4177401 -10.10546875 2.5546875 C-6.5767878 -0.05090623 -4.39876509 -0.43125148 0 0 Z " fill="#000000" transform="translate(87,49)"/>
<path d="M0 0 C0.80695313 -0.02384766 1.61390625 -0.04769531 2.4453125 -0.07226562 C6.58937198 -0.06200805 8.36552298 -0.00931262 11.53125 2.84375 C13.74546176 6.9423973 13.58716647 8.93856402 13 13.5625 C10.79259319 16.53108157 9.51402627 17.39115791 6 18.5625 C3.85662235 18.68266328 1.70920876 18.73781664 -0.4375 18.75 C-1.57058594 18.76417969 -2.70367187 18.77835937 -3.87109375 18.79296875 C-6.90760833 18.56930538 -8.51594959 18.26568718 -11 16.5625 C-13.04031755 13.50202368 -13.31593524 12.62754006 -13.375 9.125 C-13.40335937 8.36316406 -13.43171875 7.60132813 -13.4609375 6.81640625 C-11.99066966 -0.37295427 -6.04099055 -0.08202623 0 0 Z " fill="#000000" transform="translate(312,255.4375)"/>
<path d="M0 0 C0.80695313 -0.02384766 1.61390625 -0.04769531 2.4453125 -0.07226562 C6.58937198 -0.06200805 8.36552298 -0.00931262 11.53125 2.84375 C13.74546176 6.9423973 13.58716647 8.93856402 13 13.5625 C10.79259319 16.53108157 9.51402627 17.39115791 6 18.5625 C-6.38770469 19.72022941 -6.38770469 19.72022941 -10.8125 16.625 C-13.37030144 13.04407798 -13.64617262 11.03609997 -13.6015625 6.74609375 C-11.6609304 -0.29814875 -6.19266916 -0.08408576 0 0 Z " fill="#000000" transform="translate(355,255.4375)"/>
<path d="M0 0 C2.36497439 1.86708505 3.66030715 3.32061431 5 6 C5.25303321 9.87984253 5.30454139 12.77364205 3 16 C-0.22293286 18.3020949 -3.11996324 18.47510654 -7 18 C-9.69990662 16.20006226 -11.5418865 14.916227 -13 12 C-13.5801105 5.73480663 -13.5801105 5.73480663 -11.125 2.625 C-7.33857882 -0.27049855 -4.76801445 -0.41103573 0 0 Z " fill="#000000" transform="translate(380,334)"/>
</svg>
