<svg width="24" height="24" viewBox="0 0 24 24" fill="none" xmlns="http://www.w3.org/2000/svg">
<g clip-path="url(#clip0_1_29)" filter="url(#filter0_i_1_29)">
<path fill-rule="evenodd" clip-rule="evenodd" d="M17.2931 8.293C17.3853 8.19749 17.4957 8.12131 17.6177 8.0689C17.7397 8.01649 17.8709 7.9889 18.0037 7.98775C18.1365 7.9866 18.2681 8.0119 18.391 8.06218C18.5139 8.11246 18.6256 8.18671 18.7195 8.28061C18.8134 8.3745 18.8876 8.48615 18.9379 8.60905C18.9882 8.73194 19.0135 8.86362 19.0123 8.9964C19.0112 9.12918 18.9836 9.2604 18.9312 9.3824C18.8788 9.50441 18.8026 9.61475 18.7071 9.707L12.7071 15.707C12.5248 15.8893 12.2793 15.9941 12.0216 15.9997C11.7639 16.0053 11.514 15.9112 11.3241 15.737L5.32407 10.237C5.12861 10.0577 5.01237 9.80812 5.00093 9.54313C4.99527 9.41192 5.0155 9.28088 5.06048 9.1575C5.10546 9.03411 5.1743 8.92078 5.26307 8.824C5.35185 8.72722 5.45881 8.64886 5.57787 8.59342C5.69692 8.53798 5.82573 8.50652 5.95694 8.50086C6.22193 8.48942 6.48061 8.58371 6.67607 8.763L11.9701 13.616L17.2931 8.293Z" fill="#848895"/>
</g>
<defs>
<filter id="filter0_i_1_29" x="0" y="0" width="24" height="28" filterUnits="userSpaceOnUse" color-interpolation-filters="sRGB">
<feFlood flood-opacity="0" result="BackgroundImageFix"/>
<feBlend mode="normal" in="SourceGraphic" in2="BackgroundImageFix" result="shape"/>
<feColorMatrix in="SourceAlpha" type="matrix" values="0 0 0 0 0 0 0 0 0 0 0 0 0 0 0 0 0 0 127 0" result="hardAlpha"/>
<feOffset dy="4"/>
<feGaussianBlur stdDeviation="2"/>
<feComposite in2="hardAlpha" operator="arithmetic" k2="-1" k3="1"/>
<feColorMatrix type="matrix" values="0 0 0 0 0 0 0 0 0 0 0 0 0 0 0 0 0 0 0.25 0"/>
<feBlend mode="normal" in2="shape" result="effect1_innerShadow_1_29"/>
</filter>
<clipPath id="clip0_1_29">
<rect width="24" height="24" fill="white"/>
</clipPath>
</defs>
</svg>
