<svg width="206" height="31" viewBox="0 0 206 31" fill="none" xmlns="http://www.w3.org/2000/svg">
<rect y="5" width="26" height="16" fill="#848895"/>
<path d="M20.5333 9.86683C20.5333 9.7335 20.3333 8.66683 19.8666 8.20016C19.2666 7.5335 18.5999 7.46683 18.2666 7.46683H18.1999C16.1333 7.3335 13.0666 7.3335 12.9999 7.3335C12.9999 7.3335 9.86659 7.3335 7.79992 7.46683H7.73325C7.39992 7.46683 6.73325 7.5335 6.13325 8.20016C5.66659 8.7335 5.46659 9.80016 5.46659 9.9335C5.46659 10.0002 5.33325 11.2002 5.33325 12.4668V13.6002C5.33325 14.8668 5.46659 16.0668 5.46659 16.1335C5.46659 16.2668 5.66659 17.3335 6.13325 17.8002C6.66659 18.4002 7.33325 18.4668 7.73325 18.5335H7.93325C9.13325 18.6668 12.7999 18.6668 12.9333 18.6668C12.9333 18.6668 16.0666 18.6668 18.1333 18.5335H18.1999C18.5333 18.4668 19.1999 18.4002 19.7999 17.8002C20.2666 17.2668 20.4666 16.2002 20.4666 16.0668C20.4666 16.0002 20.5999 14.8002 20.5999 13.5335V12.4002C20.6666 11.2002 20.5333 9.9335 20.5333 9.86683ZM15.5999 13.1335L11.5999 15.2668C11.5333 15.2668 11.5333 15.3335 11.4666 15.3335C11.3999 15.3335 11.3333 15.3335 11.3333 15.2668C11.2666 15.2002 11.1999 15.1335 11.1999 15.0002V10.6668C11.1999 10.5335 11.2666 10.4668 11.3333 10.4002C11.3999 10.3335 11.5333 10.3335 11.6666 10.4002L15.6666 12.5335C15.7999 12.6002 15.8666 12.6668 15.8666 12.8002C15.8666 12.9335 15.7333 13.0668 15.5999 13.1335Z" fill="black"/>
<rect x="72" y="5" width="26" height="16" fill="#848895"/>
<path d="M82.3588 7.4458C81.8505 7.4458 80.3179 8.06753 80.043 8.19178C79.768 8.31603 79.4628 8.7039 79.1165 9.34405C78.7697 9.9842 78.4915 10.7325 78.0393 11.8333C77.5877 12.9341 77.4823 15.0563 77.4975 15.704C77.5126 16.3517 77.5868 16.8577 78.2505 17.2408C78.9138 17.6235 79.5006 18.0241 80.1181 18.2651C80.736 18.506 81.1574 18.6794 81.4437 18.4384C81.73 18.1975 81.9185 17.7756 81.9185 17.7756C81.9185 17.7756 82.1897 17.3991 81.6776 17.1733C81.1655 16.947 80.9094 16.7887 80.9316 16.5553C80.9543 16.3219 80.9916 16.1939 81.1196 16.2241C81.2477 16.2544 81.5496 16.7963 82.7094 17.0448C83.8692 17.2933 84.9998 17.2559 84.9998 17.2559C84.9998 17.2559 86.1308 17.2937 87.2906 17.0448C88.4504 16.7963 88.7518 16.2544 88.8799 16.2241C89.0079 16.1939 89.0452 16.3219 89.0679 16.5548C89.0906 16.7887 88.8345 16.947 88.3224 17.1733C87.8103 17.3991 88.0815 17.7756 88.0815 17.7756C88.0815 17.7756 88.27 18.197 88.5563 18.4384C88.8421 18.6794 89.264 18.506 89.8814 18.2651C90.4989 18.0241 91.0862 17.624 91.7495 17.2408C92.4132 16.8577 92.4874 16.3517 92.5025 15.704C92.5176 15.0567 92.4123 12.9341 91.9602 11.8333C91.5085 10.7325 91.2298 9.9842 90.883 9.34405C90.5372 8.7039 90.2315 8.31603 89.957 8.19131C89.6821 8.06753 88.149 7.4458 87.6407 7.4458C87.1323 7.4458 86.9821 7.80013 86.9821 7.80013L86.8049 8.19178C86.8049 8.19178 85.6144 7.96548 85.0078 7.96501C84.4012 7.96501 83.195 8.19178 83.195 8.19178L83.0179 7.79966C83.0179 7.79966 82.8676 7.4458 82.3588 7.4458ZM82.4141 12.1456H82.433C83.1743 12.1456 83.7747 12.7943 83.7747 13.5941C83.7747 14.3944 83.1743 15.0426 82.433 15.0426C81.6918 15.0426 81.0913 14.3944 81.0913 13.5941C81.0908 12.8018 81.6804 12.1565 82.4141 12.1456ZM87.567 12.1456H87.5859C88.3196 12.1565 88.9087 12.8023 88.9087 13.5941C88.9087 14.3944 88.3082 15.0426 87.567 15.0426C86.8252 15.0426 86.2253 14.3944 86.2253 13.5941C86.2253 12.7943 86.8252 12.1456 87.567 12.1456Z" fill="black"/>
<rect x="144" y="5" width="26" height="16" fill="#848895"/>
<g clip-path="url(#clip0_1_376)">
<path fill-rule="evenodd" clip-rule="evenodd" d="M157 5C152.582 5 149 8.67233 149 13.2023C149 16.8267 151.292 19.9013 154.471 20.9857C154.871 21.0617 155.018 20.808 155.018 20.5913C155.018 20.3957 155.01 19.7497 155.007 19.0643C152.781 19.5603 152.311 18.0963 152.311 18.0963C151.947 17.1483 151.423 16.8963 151.423 16.8963C150.697 16.387 151.478 16.3977 151.478 16.3977C152.281 16.4553 152.704 17.2427 152.704 17.2427C153.418 18.4967 154.576 18.1343 155.032 17.9247C155.104 17.3947 155.311 17.0327 155.54 16.828C153.763 16.6203 151.895 15.917 151.895 12.774C151.895 11.8787 152.208 11.1467 152.72 10.5723C152.636 10.3657 152.363 9.53133 152.797 8.40167C152.797 8.40167 153.469 8.18133 154.998 9.24233C155.636 9.06067 156.32 8.96967 157 8.96633C157.68 8.96967 158.365 9.06067 159.004 9.24233C160.531 8.18133 161.202 8.40167 161.202 8.40167C161.637 9.53167 161.363 10.3657 161.28 10.5723C161.794 11.1467 162.104 11.8787 162.104 12.774C162.104 15.9247 160.232 16.6183 158.451 16.8213C158.738 17.076 158.993 17.575 158.993 18.3403C158.993 19.4377 158.984 20.321 158.984 20.5913C158.984 20.8097 159.128 21.0653 159.534 20.9847C162.711 19.899 165 16.8253 165 13.2023C165 8.67233 161.418 5 157 5Z" fill="black"/>
<path fill-rule="evenodd" clip-rule="evenodd" d="M152.03 16.7768C152.012 16.8178 151.95 16.8298 151.893 16.8018C151.835 16.7751 151.802 16.7195 151.821 16.6785C151.838 16.6365 151.901 16.6251 151.959 16.6528C152.017 16.6798 152.05 16.7361 152.03 16.7768ZM152.354 17.1475C152.316 17.1835 152.241 17.1668 152.191 17.1095C152.138 17.0521 152.129 16.9758 152.167 16.9391C152.207 16.9025 152.279 16.9198 152.331 16.9768C152.384 17.0348 152.394 17.1108 152.354 17.1475ZM152.669 17.6198C152.621 17.6548 152.54 17.6221 152.491 17.5491C152.442 17.4758 152.442 17.3885 152.492 17.3535C152.542 17.3185 152.62 17.3501 152.671 17.4225C152.72 17.4965 152.72 17.5841 152.669 17.6198ZM153.102 18.0765C153.058 18.1258 152.964 18.1125 152.896 18.0448C152.826 17.9788 152.807 17.8848 152.851 17.8351C152.895 17.7855 152.989 17.7995 153.058 17.8665C153.127 17.9325 153.148 18.0271 153.102 18.0765ZM153.698 18.3411C153.678 18.4055 153.588 18.4345 153.498 18.4075C153.408 18.3791 153.348 18.3041 153.366 18.2391C153.385 18.1745 153.476 18.1438 153.567 18.1731C153.657 18.2011 153.717 18.2758 153.698 18.3411ZM154.353 18.3905C154.355 18.4581 154.278 18.5138 154.183 18.5151C154.087 18.5175 154.01 18.4628 154.009 18.3961C154.009 18.3278 154.084 18.2725 154.179 18.2708C154.275 18.2688 154.353 18.3231 154.353 18.3905ZM154.962 18.2841C154.973 18.3501 154.907 18.4178 154.813 18.4358C154.72 18.4531 154.634 18.4125 154.622 18.3471C154.61 18.2795 154.678 18.2115 154.77 18.1938C154.865 18.1771 154.95 18.2175 154.962 18.2841Z" fill="black"/>
</g>
<rect x="36" y="5" width="26" height="16" fill="#848895"/>
<path d="M55.9116 9.25151C55.3912 9.48253 54.8389 9.63389 54.2733 9.70053C54.8692 9.3443 55.3151 8.7833 55.5275 8.12234C54.9677 8.45479 54.3551 8.68902 53.7162 8.81492C53.4494 8.53016 53.1269 8.30326 52.7688 8.1483C52.4107 7.99333 52.0245 7.91361 51.6343 7.91406C50.0592 7.91406 48.7822 9.19112 48.7822 10.7665C48.7822 10.9897 48.8073 11.2073 48.8561 11.4164C46.4854 11.2973 44.3834 10.162 42.9766 8.43617C42.7228 8.8715 42.5896 9.36654 42.5905 9.87043C42.5905 10.8599 43.094 11.7331 43.8594 12.2445C43.4064 12.2301 42.9634 12.1077 42.5673 11.8875L42.5671 11.9236C42.5671 13.3053 43.5503 14.4579 44.8553 14.7204C44.4351 14.8342 43.9945 14.8508 43.567 14.769C43.9302 15.9021 44.9834 16.727 46.2314 16.7499C45.2211 17.5429 43.9734 17.9731 42.689 17.971C42.459 17.971 42.2318 17.9575 42.0085 17.931C43.3127 18.7692 44.8307 19.2141 46.381 19.2125C51.6278 19.2125 54.4966 14.8663 54.4966 11.097C54.4966 10.9733 54.494 10.85 54.4887 10.7275C55.0472 10.3243 55.5291 9.82442 55.9116 9.25151Z" fill="black"/>
<rect x="180" y="5" width="26" height="16" rx="8" fill="white"/>
<rect x="180" y="5" width="26" height="16" fill="#848895"/>
<path d="M200.147 8.06965L197.977 18.3C197.814 19.022 197.387 19.2016 196.78 18.8616L193.475 16.4259L191.88 17.9598C191.704 18.1363 191.556 18.284 191.216 18.284L191.453 14.9176L197.579 9.38211C197.846 9.14468 197.522 9.01308 197.165 9.25055L189.592 14.0191L186.332 12.9987C185.623 12.7772 185.61 12.2895 186.479 11.9493L199.232 7.03637C199.822 6.81496 200.339 7.1679 200.147 8.06965Z" fill="black"/>
<g clip-path="url(#clip1_1_376)">
<rect x="108" y="5" width="26" height="16" rx="8" fill="white"/>
<rect x="108" y="5" width="26" height="16" fill="#848895"/>
<path d="M127.969 13.027C127.969 12.6013 127.8 12.1932 127.499 11.8922C127.198 11.5912 126.789 11.4218 126.364 11.4214C125.974 11.4209 125.597 11.5634 125.306 11.8218C124.244 11.1423 122.827 10.7142 121.264 10.668L122.22 7.39741L124.568 7.83367C124.568 7.85286 124.564 7.87092 124.565 7.89011C124.579 8.15874 124.699 8.41085 124.899 8.59114C125.099 8.77143 125.362 8.86517 125.63 8.8518C125.899 8.83771 126.151 8.71769 126.331 8.51805C126.511 8.31841 126.605 8.05545 126.592 7.78683C126.578 7.51819 126.458 7.26608 126.258 7.08579C126.058 6.90551 125.795 6.81176 125.527 6.82513C125.356 6.83424 125.19 6.88666 125.044 6.97748C124.899 7.06829 124.779 7.19453 124.696 7.34436L124.695 7.34407L121.866 6.81836L120.739 10.6674C119.172 10.7089 117.751 11.1347 116.684 11.8128C116.394 11.5599 116.021 11.4208 115.636 11.4214C115.21 11.4219 114.802 11.5912 114.501 11.8923C114.2 12.1933 114.031 12.6014 114.031 13.027C114.031 13.5745 114.312 14.0796 114.769 14.3742C114.74 14.5354 114.726 14.6987 114.725 14.8624C114.725 17.1797 117.535 19.0653 120.988 19.0653C124.442 19.0653 127.25 17.1797 127.25 14.8621C127.25 14.7018 127.236 14.5438 127.209 14.388C127.441 14.2443 127.633 14.044 127.766 13.8059C127.898 13.5678 127.969 13.2997 127.969 13.027ZM118.012 14.1197C118.012 13.9901 118.037 13.8618 118.087 13.7421C118.136 13.6224 118.209 13.5137 118.301 13.4221C118.392 13.3305 118.501 13.2578 118.621 13.2083C118.741 13.1587 118.869 13.1332 118.999 13.1333C119.128 13.1333 119.256 13.1589 119.376 13.2085C119.496 13.2581 119.605 13.3308 119.696 13.4225C119.788 13.5141 119.86 13.6229 119.91 13.7426C119.959 13.8623 119.985 13.9907 119.985 14.1202C119.985 14.3819 119.881 14.6328 119.696 14.8178C119.511 15.0028 119.26 15.1067 118.998 15.1066C118.736 15.1065 118.485 15.0025 118.3 14.8174C118.115 14.6323 118.012 14.3813 118.012 14.1197ZM123.314 16.7886C123.285 16.8191 122.577 17.5395 120.977 17.5395C119.368 17.5395 118.725 16.8092 118.698 16.7781C118.658 16.7272 118.638 16.6624 118.644 16.5975C118.65 16.5326 118.681 16.4725 118.731 16.4299C118.78 16.3872 118.844 16.3654 118.909 16.3688C118.974 16.3723 119.035 16.4009 119.08 16.4486C119.095 16.4644 119.631 17.0352 120.976 17.0352C122.345 17.0352 122.945 16.444 122.951 16.4384C122.998 16.3951 123.061 16.3714 123.125 16.3723C123.189 16.3731 123.25 16.3984 123.297 16.443C123.343 16.4876 123.37 16.5481 123.374 16.6122C123.377 16.6764 123.355 16.7396 123.314 16.7886ZM123.118 15.1065C122.988 15.1065 122.86 15.0811 122.74 15.0315C122.621 14.982 122.512 14.9094 122.42 14.8178C122.328 14.7263 122.256 14.6175 122.206 14.4979C122.156 14.3782 122.131 14.2499 122.131 14.1204C122.131 13.9908 122.156 13.8625 122.206 13.7428C122.255 13.6231 122.328 13.5143 122.419 13.4227C122.511 13.331 122.62 13.2583 122.739 13.2087C122.859 13.159 122.987 13.1335 123.117 13.1334C123.379 13.1333 123.63 13.2371 123.815 13.4221C124 13.607 124.104 13.8579 124.104 14.1195C124.104 14.3812 124 14.6321 123.815 14.8172C123.63 15.0023 123.379 15.1064 123.118 15.1065Z" fill="black"/>
</g>
<defs>
<clipPath id="clip0_1_376">
<rect width="16" height="16" fill="white" transform="translate(149 5)"/>
</clipPath>
<clipPath id="clip1_1_376">
<rect x="108" y="5" width="26" height="16" rx="8" fill="white"/>
</clipPath>
</defs>
</svg>
