<?xml version="1.0" encoding="UTF-8"?>
<svg version="1.1" xmlns="http://www.w3.org/2000/svg" width="512" height="512">
<path d="M0 0 C1.72705606 1.59062052 3.38572832 3.22736975 5.0294342 4.90394592 C5.63248886 5.50554535 6.23554352 6.10714478 6.85687256 6.72697449 C8.11951638 7.99126689 9.37726845 9.26046218 10.63026428 10.53431702 C12.54128852 12.47439605 14.47039934 14.39501705 16.40248108 16.31410217 C17.63341598 17.55127287 18.86327177 18.78951836 20.0919342 20.02894592 C20.9497625 20.88237076 20.9497625 20.88237076 21.82492065 21.7530365 C27.40479786 27.46532114 29.78592351 32.81427297 30.28334045 40.79457092 C30.03901797 53.32482397 19.95117876 61.03127651 11.6700592 69.25550842 C10.88090622 70.04324646 10.09175323 70.8309845 9.27868652 71.64259338 C6.78520283 74.13052944 4.28824511 76.61494467 1.79115295 79.09925842 C0.08844708 80.79694252 -1.61402912 82.494857 -3.31626892 84.19300842 C-7.46531117 88.33109122 -11.61720281 92.46629777 -15.77134705 96.59925842 C-14.69805901 96.60139595 -14.69805901 96.60139595 -13.60308838 96.60357666 C-6.84962614 96.62142923 -0.0967764 96.66310856 6.65637493 96.73134899 C10.12806471 96.76559538 13.59931559 96.7907251 17.07118225 96.79481506 C21.06560763 96.79992437 25.05872001 96.84505308 29.0528717 96.89222717 C30.29574448 96.88829453 31.53861725 96.88436188 32.81915283 96.88031006 C33.97997879 96.89995316 35.14080475 96.91959625 36.33680725 96.93983459 C37.35606796 96.94649643 38.37532867 96.95315826 39.42547607 96.96002197 C43.30954614 97.8457453 44.71137036 99.55408659 47.22865295 102.59925842 C47.85950947 105.60395527 47.85950947 105.60395527 47.8678894 109.00900269 C47.88317688 110.30324158 47.89846436 111.59748047 47.91421509 112.93093872 C47.9059637 114.35789764 47.89723498 115.78485386 47.88807678 117.21180725 C47.89653207 118.71992823 47.90717714 120.22803829 47.91984558 121.73612976 C47.94799271 125.82469856 47.94552033 129.91274275 47.93755174 134.00137925 C47.93442699 138.27624646 47.95946006 142.55094648 47.98150635 146.82574463 C48.01896272 154.91815662 48.03109528 163.01040055 48.03413075 171.10289067 C48.03881986 180.31693892 48.07173841 189.53081864 48.1070286 198.74479258 C48.17898167 217.69626496 48.21548284 236.64765862 48.22865295 255.59925842 C49.16717102 254.65288513 49.16717102 254.65288513 50.12464905 253.68739319 C52.44474914 251.35026207 54.76707588 249.01539064 57.09095764 246.68202209 C58.09674499 245.67120257 59.10163343 244.6594878 60.10560608 243.64686584 C61.54791778 242.19243986 62.99341968 240.74125227 64.43959045 239.29066467 C65.30890198 238.41611633 66.1782135 237.54156799 67.0738678 236.64051819 C69.86065798 234.00055074 70.7271843 233.64569071 74.60365295 233.28675842 C78.22865295 233.59925842 78.22865295 233.59925842 80.42389011 234.96358395 C83.26270725 239.10939064 82.77641403 243.17003676 82.7298584 248.08255005 C82.7353928 249.16190887 82.74092719 250.2412677 82.7466293 251.35333437 C82.76027981 254.98249724 82.74524211 258.61097765 82.73036194 262.24012756 C82.73414347 264.83680515 82.73964214 267.43348072 82.74673462 270.03015137 C82.7606778 276.35803463 82.7531033 282.68571853 82.73805904 289.01359231 C82.72121283 296.37925292 82.72440739 303.74486367 82.72815312 311.11053758 C82.73403356 324.25012875 82.71985237 337.38962413 82.69520569 350.52919006 C82.67127946 363.28606252 82.66420308 376.04280701 82.67469788 388.79969788 C82.68610034 402.68480993 82.68804586 416.56986278 82.67359978 430.45497411 C82.6720739 431.93475973 82.67055355 433.41454535 82.66903877 434.89433098 C82.66828096 435.622454 82.66752314 436.35057703 82.66674237 437.10076438 C82.66199471 442.23805374 82.66385434 447.3753167 82.66810417 452.51260567 C82.67353761 459.42285092 82.66281622 466.33291524 82.64114952 473.24312782 C82.63556722 475.78486786 82.63512948 478.32662494 82.64010239 480.86836624 C82.64602202 484.32676096 82.63361364 487.78460544 82.61633301 491.24295044 C82.62534808 492.76656546 82.62534808 492.76656546 82.63454527 494.32096058 C82.62610533 495.24408336 82.61766539 496.16720615 82.60896969 497.11830235 C82.60742599 498.31629517 82.60742599 498.31629517 82.60585111 499.53848988 C82.12888689 502.14431615 81.30614907 502.99787821 79.22865295 504.59925842 C76.42260868 505.53460651 74.72944973 505.72606773 71.82857704 505.73068619 C70.92348794 505.73452733 70.01839883 505.73836848 69.08588278 505.74232602 C68.0902763 505.74145954 67.09466981 505.74059306 66.06889343 505.73970032 C64.48388017 505.744157 64.48388017 505.744157 62.86684644 505.74870372 C59.308567 505.75740966 55.75032112 505.75890056 52.19203186 505.76039124 C49.64800952 505.76501802 47.10398787 505.77004248 44.55996704 505.7754364 C37.63647579 505.78857468 30.71299563 505.79504449 23.78949404 505.79944706 C19.46751946 505.80220896 15.14554713 505.80644619 10.82357407 505.81095123 C-1.13991595 505.8231435 -13.10340416 505.83344327 -25.06690025 505.83682632 C-26.21552247 505.83715567 -26.21552247 505.83715567 -27.38734917 505.83749168 C-28.1549391 505.83770995 -28.92252903 505.83792823 -29.71337926 505.83815312 C-31.26883467 505.83859659 -32.82429008 505.83904316 -34.37974548 505.8394928 C-35.15130665 505.83971423 -35.92286782 505.83993566 -36.71780963 505.8401638 C-49.22376342 505.844113 -61.72965898 505.8615709 -74.23559026 505.88485232 C-87.07152257 505.90855548 -99.90742564 505.92102768 -112.74338019 505.92219424 C-119.95183522 505.92311153 -127.16021437 505.92887732 -134.36864853 505.94701385 C-141.14671908 505.9640074 -147.92462084 505.96567525 -154.70271492 505.95687485 C-157.19363477 505.95610173 -159.68456222 505.96048311 -162.17546272 505.9703331 C-165.56968914 505.98297053 -168.96339803 505.97722026 -172.35762024 505.9667511 C-173.34876528 505.9748075 -174.33991032 505.98286391 -175.36109006 505.99116445 C-180.28140786 505.95554546 -183.8261244 505.90551112 -187.77134705 502.59925842 C-189.40158519 499.33878214 -189.23870055 497.22124807 -188.77134705 493.59925842 C-187.48446655 491.76747131 -187.48446655 491.76747131 -185.76133728 489.88441467 C-185.12356354 489.1857428 -184.48578979 488.48707092 -183.82868958 487.76722717 C-180.41896935 484.17416147 -176.94642972 480.6518148 -173.4315033 477.16175842 C-172.66454636 476.39621643 -171.89758942 475.63067444 -171.10739136 474.8419342 C-168.68523823 472.42532645 -166.25961092 470.01224116 -163.83384705 467.59925842 C-162.17931812 465.94975157 -160.52501903 464.30001414 -158.87095642 462.65003967 C-154.84040502 458.63044471 -150.80700432 454.61372673 -146.77134705 450.59925842 C-148.51456584 450.5942932 -148.51456584 450.5942932 -150.29300117 450.58922768 C-177.92670437 450.51008139 -205.56035994 450.42081314 -233.19399006 450.31920681 C-236.60079759 450.30668907 -240.00760542 450.29425612 -243.41441345 450.28187561 C-244.09260127 450.27940962 -244.7707891 450.27694362 -245.46952806 450.2744029 C-256.42728575 450.23476068 -267.38505365 450.20197572 -278.34284092 450.17175861 C-289.60012194 450.1405617 -300.85735979 450.10177265 -312.11459434 450.05646837 C-318.43187937 450.03128241 -324.74913428 450.00947794 -331.06645584 449.99591446 C-337.02046107 449.98302221 -342.97436259 449.96089133 -348.92831039 449.93187523 C-351.10582096 449.92285521 -353.28334821 449.91712236 -355.46087646 449.91504478 C-377.25804004 449.89053782 -396.64954551 448.86201862 -413.40415955 433.12660217 C-426.07881852 419.97900816 -430.24372017 405.47165348 -430.1590271 387.57011414 C-430.16320792 386.17982345 -430.16868952 384.78953619 -430.17534691 383.39925516 C-430.18972221 379.60680659 -430.1855818 375.8145768 -430.1781801 372.02211666 C-430.17343098 367.92111647 -430.18597364 363.82016243 -430.19619751 359.71917725 C-430.21335685 351.69581343 -430.21423147 343.67252802 -430.20898461 335.64915062 C-430.20493629 329.12491676 -430.20639431 322.600706 -430.21173286 316.07647324 C-430.21248129 315.14642029 -430.21322971 314.21636733 -430.21400081 313.25813096 C-430.21553235 311.36847334 -430.2170707 309.47881572 -430.21861578 307.5891581 C-430.23233048 289.88500152 -430.2269104 272.18088918 -430.21543057 254.47673361 C-430.20549949 238.29722229 -430.21843853 222.11782536 -430.24236476 205.93833168 C-430.26677549 189.30525624 -430.27635876 172.67223404 -430.26971203 156.03914106 C-430.26622417 146.70891263 -430.26842323 137.37877213 -430.28596306 128.04855728 C-430.30070974 120.10595778 -430.30128832 112.16350815 -430.28389215 104.22091152 C-430.2754 100.17264802 -430.27318859 96.12465197 -430.2885437 92.07640266 C-430.3024545 88.36280494 -430.29754668 84.64970216 -430.27830447 80.93613259 C-430.27280596 78.97287135 -430.28676247 77.00958449 -430.30165857 75.04637206 C-430.16703889 58.68229051 -424.2927466 44.65684315 -413.0486908 32.81410217 C-402.1545406 22.2189338 -388.04025483 15.83197615 -372.77134705 15.22425842 C-369.09051076 15.35958329 -366.68243071 16.23400295 -363.77134705 18.59925842 C-362.28012927 21.58169397 -362.64133232 24.62541594 -362.65782166 27.89466858 C-362.65767563 28.64598557 -362.6575296 29.39730255 -362.65737915 30.17138672 C-362.65807708 32.66039393 -362.66586391 35.14932675 -362.6736908 37.63832092 C-362.6755554 39.36182108 -362.6769791 41.08532176 -362.67797852 42.80882263 C-362.68180036 47.3495174 -362.69162782 51.89018028 -362.7026825 56.43086243 C-362.71290376 61.06251087 -362.71747767 65.69416446 -362.72251892 70.32582092 C-362.73325037 79.41698078 -362.75032282 88.50811695 -362.77134705 97.59925842 C-326.72079015 100.39683858 -290.64836948 102.27247078 -254.50298774 103.23233044 C-253.14244038 103.26855684 -251.78190743 103.30532866 -250.4213897 103.34265125 C-161.41530765 107.49243239 -161.41530765 107.49243239 -85.13314819 68.04052734 C-78.30694695 61.5300771 -72.13596293 54.5021912 -66.14634705 47.22425842 C-65.66054531 46.63617763 -65.17474357 46.04809684 -64.67422056 45.44219542 C-53.92413635 32.37366426 -43.90014013 18.86472369 -35.3350172 4.24416637 C-32.06853742 -1.15772601 -29.89013971 -3.60257162 -23.77134705 -5.40074158 C-22.98759705 -5.64824158 -22.20384705 -5.89574158 -21.39634705 -6.15074158 C-13.3799069 -6.91421207 -6.36347033 -5.03208983 0 0 Z M-19.65415955 10.55628967 C-23.48922049 13.0697444 -26.48597811 15.98696145 -29.64634705 19.28675842 C-30.2393158 19.89326233 -30.83228455 20.49976624 -31.44322205 21.12464905 C-32.89290626 22.60940627 -34.33311172 24.10340833 -35.77134705 25.59925842 C-34.45757788 28.50469714 -33.05078213 30.56586901 -30.79039001 32.80726624 C-30.18991852 33.40758667 -29.58944702 34.0079071 -28.97077942 34.62641907 C-28.32488861 35.2619873 -27.6789978 35.89755554 -27.01353455 36.55238342 C-26.01895737 37.54271576 -26.01895737 37.54271576 -25.00428772 38.55305481 C-22.88962873 40.65653666 -20.76811492 42.75294984 -18.64634705 44.84925842 C-17.20969147 46.27588103 -15.77348807 47.70295914 -14.3377533 49.13050842 C-10.820839 52.62539503 -7.29776158 56.11395904 -3.77134705 59.59925842 C0.60385826 57.48733171 3.49714071 54.6981981 6.91615295 51.28675842 C7.80657288 50.43307678 7.80657288 50.43307678 8.71498108 49.56214905 C11.16593692 47.12796144 12.97650528 45.20641545 14.3106842 41.99378967 C14.0632379 34.77071424 6.25046882 29.28541223 1.45033264 24.50526428 C-0.1433431 22.9147564 -1.72320817 21.31136101 -3.30259705 19.7066803 C-4.32001486 18.6869899 -5.33821816 17.66808251 -6.35728455 16.65003967 C-7.27558044 15.72876282 -8.19387634 14.80748596 -9.13999939 13.85829163 C-12.70662635 10.79631359 -15.04506231 9.02616932 -19.65415955 10.55628967 Z M-51.59165955 41.22425842 C-52.69831591 42.34424799 -53.79966625 43.46949908 -54.89634705 44.59925842 C-55.74132751 45.45777405 -55.74132751 45.45777405 -56.6033783 46.33363342 C-57.99720972 47.75108911 -59.3848634 49.17461468 -60.77134705 50.59925842 C-56.8076218 55.3501171 -52.67339923 59.83538954 -48.27915955 64.18910217 C-47.68835602 64.77849075 -47.09755249 65.36787933 -46.48884583 65.97512817 C-44.62704301 67.83139569 -42.7617696 69.68412927 -40.89634705 71.53675842 C-39.62267694 72.80540515 -38.34923733 74.07428333 -37.07603455 75.34339905 C-33.97712661 78.43136396 -30.87510404 81.51616771 -27.77134705 84.59925842 C-26.64568798 83.63948633 -25.52074347 82.67887613 -24.39610291 81.71791077 C-23.45630836 80.91563553 -23.45630836 80.91563553 -22.49752808 80.09715271 C-20.7016586 78.53878624 -18.994728 76.92564867 -17.33384705 75.22425842 C-16.48822205 74.35800842 -15.64259705 73.49175842 -14.77134705 72.59925842 C-16.08138929 69.70910761 -17.48379179 67.63483668 -19.7205658 65.39125061 C-20.31458191 64.79093018 -20.90859802 64.19060974 -21.52061462 63.57209778 C-22.16023132 62.93652954 -22.79984802 62.3009613 -23.45884705 61.64613342 C-24.4463092 60.65580109 -24.4463092 60.65580109 -25.45372009 59.64546204 C-26.84326996 58.25455342 -28.23533979 56.86615834 -29.62974548 55.4801178 C-31.77043991 53.35016101 -33.90022614 51.20971346 -36.02915955 49.06800842 C-37.38008092 47.71840803 -38.73162223 46.36942783 -40.08384705 45.02113342 C-40.72346375 44.37746826 -41.36308044 43.7338031 -42.02207947 43.07063293 C-46.52580688 37.97403406 -46.52580688 37.97403406 -51.59165955 41.22425842 Z M-401.7127533 44.44691467 C-411.14107451 54.68977768 -414.08462746 64.65275026 -414.01185608 78.29870605 C-414.01356493 79.472583 -414.01527378 80.64645995 -414.01703441 81.85590893 C-414.01975255 85.10100357 -414.01352693 88.34593722 -414.00347829 91.59101284 C-413.99482241 95.0953532 -413.99776546 98.59968638 -413.99928284 102.10403442 C-414.00033034 108.17117518 -413.99406785 114.23827284 -413.98280716 120.30540276 C-413.96653682 129.07739292 -413.96134258 137.84936229 -413.95883118 146.62136591 C-413.95445648 160.85416155 -413.94115349 175.08693423 -413.92222595 189.31971741 C-413.90386132 203.14360947 -413.88970767 216.96749529 -413.88121033 230.79139709 C-413.88068488 231.64383877 -413.88015943 232.49628044 -413.87961806 233.37455367 C-413.87700794 237.65110357 -413.87448054 241.92765351 -413.87199426 246.20420349 C-413.85126878 281.66923816 -413.81604938 317.13424617 -413.77134705 352.59925842 C-413.22430115 352.18611893 -412.67725525 351.77297943 -412.1136322 351.34732056 C-411.39481873 350.80598984 -410.67600525 350.26465912 -409.93540955 349.70692444 C-408.8673407 348.90159019 -408.8673407 348.90159019 -407.7776947 348.07998657 C-401.19122993 343.21903251 -394.17789221 340.25021617 -386.39634705 337.91566467 C-385.66029236 337.69044128 -384.92423767 337.4652179 -384.1658783 337.23316956 C-382.36906157 336.6840612 -380.57039018 336.14102787 -378.77134705 335.59925842 C-378.7658786 334.67297638 -378.7658786 334.67297638 -378.76029968 333.72798157 C-378.71850674 327.3038309 -378.64918375 320.88039681 -378.56382751 314.4566803 C-378.53559239 312.05896673 -378.51439059 309.66115963 -378.50035095 307.26332092 C-378.47895732 303.81752046 -378.43232324 300.37284748 -378.38072205 296.92738342 C-378.37887909 295.31781769 -378.37887909 295.31781769 -378.3769989 293.67573547 C-378.35728027 292.675 -378.33756165 291.67426453 -378.31724548 290.64320374 C-378.30836304 289.76384155 -378.29948059 288.88447937 -378.29032898 287.97846985 C-377.59624921 284.79654308 -376.30876027 283.58428166 -373.77134705 281.59925842 C-367.83922086 280.8707517 -367.83922086 280.8707517 -365.08076477 282.75257874 C-363.20785602 285.39395321 -363.39024305 287.36322074 -363.38316345 290.58363342 C-363.37370697 291.81501038 -363.36425049 293.04638733 -363.35450745 294.31507874 C-363.35987716 295.65980857 -363.36603011 297.00453547 -363.37290955 298.34925842 C-363.37088858 299.72784072 -363.36797695 301.10642197 -363.36421204 302.48500061 C-363.3597897 305.37345056 -363.36621646 308.26162209 -363.38023376 311.15003967 C-363.39732606 314.85255596 -363.38748433 318.55441988 -363.36951637 322.25691223 C-363.35867583 325.10337744 -363.36212601 327.94968797 -363.36989975 330.79615784 C-363.37190103 332.16131162 -363.36944497 333.52647944 -363.36246109 334.89161682 C-363.35484314 336.79936963 -363.36851299 338.70717166 -363.38316345 340.61488342 C-363.38555023 341.70059631 -363.38793701 342.7863092 -363.39039612 343.90492249 C-363.77134705 346.59925842 -363.77134705 346.59925842 -365.07124329 348.42713928 C-367.93960109 350.40469922 -371.32888656 350.47635994 -374.70884705 350.91175842 C-386.57974298 352.74898077 -396.74955217 357.39417196 -404.77134705 366.59925842 C-412.38055234 377.54660167 -414.88785533 387.29885345 -413.77134705 400.59925842 C-411.03870243 412.04220777 -403.4987773 421.29286855 -393.95103455 427.84925842 C-384.4208582 433.66138391 -373.45235227 433.7109321 -362.62774658 433.92138672 C-361.64483696 433.94340812 -360.66192733 433.96542952 -359.64923257 433.98811823 C-356.37532004 434.05966075 -353.10131822 434.12459292 -349.82725525 434.18885803 C-348.67653597 434.21272017 -347.52581669 434.2365823 -346.34022713 434.26116753 C-324.32772398 434.71681765 -302.3134133 435.00208235 -280.29737629 435.21493572 C-276.69567145 435.24978327 -273.0939796 435.28583663 -269.49229431 435.32264709 C-268.77554313 435.32995091 -268.05879196 435.33725472 -267.32032105 435.34477986 C-255.7571504 435.46578822 -244.19868338 435.69588076 -232.6381918 435.96797781 C-220.71636609 436.24619313 -208.79696886 436.40698265 -196.87200993 436.4625836 C-190.19533948 436.49690227 -183.53000769 436.58491567 -176.85596657 436.80172539 C-144.45773577 438.66789459 -144.45773577 438.66789459 -116.51826328 424.80160075 C-110.73102716 419.21582312 -105.64844689 413.07147291 -100.97734356 406.53316593 C-98.77134705 403.59925842 -98.77134705 403.59925842 -95.77134705 401.59925842 C-92.53902146 401.255394 -90.40069248 401.33427087 -87.39634705 402.59925842 C-85.33533361 405.13589034 -85.20727581 407.18527263 -85.28862 410.40289497 C-86.25349795 414.79300045 -89.59955696 417.45418486 -92.74790955 420.46815491 C-93.85981659 421.57940483 -93.85981659 421.57940483 -94.9941864 422.71310425 C-97.44323878 425.15150472 -99.91925946 427.56046502 -102.39634705 429.97035217 C-104.10209485 431.65863567 -105.80601058 433.34877203 -107.50816345 435.04067993 C-111.98887461 439.4852091 -116.49264392 443.90562071 -121.00205994 448.32099915 C-126.49033412 453.70318992 -131.95176031 459.11259417 -137.4165802 464.51857853 C-141.66539994 468.72080259 -145.91834399 472.91856427 -150.1839447 477.10375977 C-150.96425049 477.8708728 -151.74455627 478.63798584 -152.54850769 479.42834473 C-154.01309071 480.86782692 -155.47959471 482.30535804 -156.94828796 483.74064636 C-157.58776367 484.36993546 -158.22723938 484.99922455 -158.88609314 485.64758301 C-159.44654327 486.1967208 -160.00699341 486.74585859 -160.58442688 487.31163692 C-161.88430873 488.42993516 -161.88430873 488.42993516 -161.77134705 489.59925842 C-86.53134705 489.59925842 -11.29134705 489.59925842 66.22865295 489.59925842 C66.22865295 478.04925842 66.22865295 466.49925842 66.22865295 454.59925842 C61.27865295 454.26925842 56.32865295 453.93925842 51.22865295 453.59925842 C49.90865295 453.26925842 48.58865295 452.93925842 47.22865295 452.59925842 C46.95117054 451.18771744 46.70771779 449.76946043 46.47865295 448.34925842 C46.3394342 447.56035217 46.20021545 446.77144592 46.05677795 445.95863342 C46.22865295 443.59925842 46.22865295 443.59925842 47.69740295 441.34925842 C51.16649359 438.95087477 54.40254906 438.92982683 58.47865295 438.84925842 C61.03615295 438.76675842 63.59365295 438.68425842 66.22865295 438.59925842 C66.22865295 431.33925842 66.22865295 424.07925842 66.22865295 416.59925842 C61.09861503 416.35013694 61.09861503 416.35013694 55.96766663 416.12123108 C52.25907216 415.91558577 50.3763184 415.69770205 47.22865295 413.59925842 C46.35751851 409.67915343 45.8499338 406.42903384 47.22865295 402.59925842 C51.07708604 401.41894003 54.98756438 401.26714603 58.97865295 401.03675842 C61.37115295 400.89238342 63.76365295 400.74800842 66.22865295 400.59925842 C66.22865295 393.33925842 66.22865295 386.07925842 66.22865295 378.59925842 C60.76957435 378.4290187 60.76957435 378.4290187 55.3094635 378.30140686 C49.73508471 378.05146421 49.73508471 378.05146421 47.1856842 375.77503967 C45.68728019 372.36846401 46.20605167 370.11445035 47.22865295 366.59925842 C51.16621058 363.47258929 54.60570923 363.14238663 59.54115295 362.91175842 C61.74802795 362.80863342 63.95490295 362.70550842 66.22865295 362.59925842 C66.22865295 355.66925842 66.22865295 348.73925842 66.22865295 341.59925842 C61.47254962 341.31106226 61.47254962 341.31106226 56.71595764 341.03114319 C53.45192914 340.82352007 50.36320111 340.56062757 47.22865295 339.59925842 C46.95117054 338.18771744 46.70771779 336.76946043 46.47865295 335.34925842 C46.3394342 334.56035217 46.20021545 333.77144592 46.05677795 332.95863342 C46.22865295 330.59925842 46.22865295 330.59925842 50.22865295 326.59925842 C55.50865295 326.26925842 60.78865295 325.93925842 66.22865295 325.59925842 C66.22865295 304.47925842 66.22865295 283.35925842 66.22865295 261.59925842 C61.82600033 265.37296067 57.73577381 268.97333818 53.68849182 273.05953979 C53.17700576 273.57440482 52.6655197 274.08926985 52.13853407 274.61973685 C50.44673701 276.3238115 48.75862964 278.03149342 47.07044983 279.739151 C45.84952949 280.97018877 44.62833575 282.20095545 43.40689087 283.43147278 C40.78773608 286.0706555 38.1699322 288.71116838 35.55300903 291.35256386 C31.41364908 295.52944402 27.26768556 299.69972643 23.12013245 303.86846924 C22.41889708 304.57334199 21.71766171 305.27821475 20.99517679 306.00444728 C19.5619998 307.44502902 18.12880664 308.88559467 16.69559765 310.32614458 C7.04731755 320.02434099 -2.59660181 329.72676523 -12.22203064 339.44764709 C-18.72627467 346.01629231 -25.2410708 352.57426503 -31.76830053 359.12007254 C-35.21884865 362.58129961 -38.6637093 366.04779603 -42.09570312 369.52742958 C-45.32014375 372.79647203 -48.55827543 376.05129289 -51.80746651 379.29573059 C-52.99667329 380.48818457 -54.18073669 381.68579364 -55.35918999 382.88887596 C-56.96962751 384.53143797 -58.59758577 386.15441499 -60.23118591 387.77389526 C-61.13743462 388.68697354 -62.04368332 389.60005182 -62.9773941 390.54079914 C-66.33001124 393.01085715 -68.6442071 393.43915312 -72.77134705 393.59925842 C-75.67508799 392.22380219 -76.50674543 391.2519424 -77.70884705 388.28675842 C-77.79838323 384.43670264 -76.87896642 382.88323788 -74.77134705 379.59925842 C-71.59645887 376.73190876 -68.14824978 374.2540655 -64.70030212 371.72669983 C-62.5529668 370.10465023 -60.40937529 368.47884075 -58.271698 366.8441925 C-57.70795888 366.4135345 -57.14421977 365.98287649 -56.56339765 365.53916824 C-44.49144059 356.2690165 -32.96308138 346.32587586 -21.58384705 336.22425842 C-20.95556031 335.66771859 -20.32727358 335.11117876 -19.67994785 334.53777409 C12.6681141 305.77209594 35.47967533 278.2773953 38.11496282 233.72547388 C38.91103369 218.10794298 38.64337018 202.58562412 37.85365295 186.97425842 C37.80880752 186.06318612 37.76396209 185.15211382 37.7177577 184.21343327 C36.53265679 160.56343503 34.38321634 137.06676583 31.22865295 113.59925842 C10.43105047 108.03347662 -16.36192826 104.0891498 -36.20067501 114.92630863 C-50.03416709 123.57948365 -61.62320072 135.52384746 -72.9705658 147.11878967 C-73.79602606 147.96067636 -74.62148633 148.80256305 -75.47196054 149.66996145 C-85.79985747 160.24783442 -95.84390496 171.0761906 -105.79105103 182.01152694 C-119.27649694 196.82978109 -133.06747238 211.3629044 -146.89215595 225.86417693 C-151.71342611 230.93385394 -156.4616313 236.06033532 -161.1585899 241.24527448 C-177.59106648 259.33355001 -191.08397251 272.95446159 -215.36030006 278.7190609 C-221.30934815 280.25417238 -227.02131732 282.44600841 -232.77134705 284.59925842 C-232.77134705 284.92925842 -232.77134705 285.25925842 -232.77134705 285.59925842 C-232.00620631 285.60164678 -231.24106558 285.60403513 -230.45273876 285.60649586 C-211.85014095 285.665587 -193.24767648 285.7410991 -174.64522076 285.83497334 C-165.6492702 285.87997236 -156.65335959 285.91937746 -147.65733337 285.94569397 C-139.81798791 285.96864089 -131.97876845 286.00200164 -124.13952285 286.04795998 C-119.98723933 286.07193702 -115.83508094 286.09063633 -111.68272972 286.09687233 C-107.77650195 286.10290305 -103.87059454 286.12282925 -99.96448517 286.15353394 C-98.52897932 286.16234662 -97.09343167 286.16603009 -95.65789986 286.16426659 C-93.70147219 286.16262165 -91.74505798 286.18103019 -89.78872681 286.20053101 C-88.69271495 286.20513997 -87.59670309 286.20974894 -86.46747875 286.21449757 C-83.77134705 286.59925842 -83.77134705 286.59925842 -81.91479206 287.90542889 C-80.01215283 290.72388231 -80.47795879 293.31330999 -80.77134705 296.59925842 C-82.77134705 299.59925842 -82.77134705 299.59925842 -84.66148001 300.27854419 C-88.15726852 300.80992798 -91.66384919 300.74351102 -95.19113159 300.73970032 C-96.04856746 300.74267144 -96.90600332 300.74564256 -97.78942209 300.74870372 C-100.66744013 300.75738721 -103.54541655 300.75889866 -106.42344666 300.76039124 C-108.48486419 300.76501956 -110.54628086 300.77004424 -112.60769653 300.7754364 C-118.21092215 300.78855872 -123.81413579 300.79500473 -129.41737437 300.79944706 C-132.91637951 300.8023773 -136.41538136 300.80648196 -139.91438484 300.81095123 C-150.85739913 300.82462406 -161.80040593 300.83429247 -172.74342817 300.83815312 C-185.38468851 300.84263724 -198.02584091 300.8602025 -210.66706842 300.88915372 C-220.43360299 300.91074682 -230.20010713 300.92085609 -239.96666533 300.92219424 C-245.80242375 300.92324372 -251.63808067 300.92918228 -257.47381401 300.94701385 C-262.96082317 300.96345411 -268.44765407 300.96566974 -273.93467903 300.95687485 C-275.94989625 300.95610237 -277.96512291 300.96047476 -279.98031616 300.9703331 C-282.7286178 300.98299087 -285.47628213 300.97720952 -288.22457886 300.9667511 C-289.42428854 300.97883571 -289.42428854 300.97883571 -290.64823478 300.99116445 C-295.17688318 300.95078146 -298.21805001 300.50155943 -301.77134705 297.59925842 C-302.98414469 294.11246519 -303.08831552 292.37360278 -301.68614197 288.94813538 C-299.77134705 286.59925842 -299.77134705 286.59925842 -296.7686615 285.93983459 C-294.96981506 285.91626892 -294.96981506 285.91626892 -293.1346283 285.89222717 C-291.83589783 285.86322327 -290.53716736 285.83421936 -289.19908142 285.80433655 C-287.827339 285.79794721 -286.45559397 285.7920947 -285.08384705 285.78675842 C-283.70034406 285.76361643 -282.31687635 285.73825167 -280.93345642 285.71058655 C-277.54579839 285.65156812 -274.15943702 285.61539369 -270.77134705 285.59925842 C-270.54885788 284.96493393 -270.32636871 284.33060944 -270.09713745 283.67706299 C-267.74593346 276.97464057 -265.3926287 270.27295828 -263.03819275 263.57167053 C-262.16381293 261.0826507 -261.29026216 258.59334451 -260.417099 256.10389709 C-259.99581726 254.90289368 -259.57453552 253.70189026 -259.14048767 252.4644928 C-258.72282639 251.27261353 -258.3051651 250.08073425 -257.87484741 248.85273743 C-257.0302629 246.45630601 -256.17854509 244.06237704 -255.31982422 241.67097473 C-253.48909805 236.56685286 -251.69876244 231.49185971 -250.23204041 226.27015686 C-246.04346565 211.9998449 -237.10488319 203.49466544 -226.45884705 193.47425842 C-224.7705731 191.83774415 -223.08500451 190.19843415 -221.40220642 188.55628967 C-218.34800507 185.59248699 -215.2858155 182.63843013 -212.19200134 179.71595764 C-211.57801987 179.13595001 -210.96403839 178.55594238 -210.33145142 177.95835876 C-207.84749153 175.79443256 -206.73051603 175.59628889 -203.33384705 175.34925842 C-199.77134705 175.59925842 -199.77134705 175.59925842 -197.83384705 176.66175842 C-196.03549862 179.94109967 -196.1661102 181.90731365 -196.77134705 185.59925842 C-201.89975706 193.03614698 -209.30154552 199.24433805 -215.70884705 205.59925842 C-216.78525358 206.6706373 -217.86142719 207.74225025 -218.93736267 208.81410217 C-221.54601449 211.4118548 -224.15779176 214.00643804 -226.77134705 216.59925842 C-222.8076218 221.3501171 -218.67339923 225.83538954 -214.27915955 230.18910217 C-213.68835602 230.77849075 -213.09755249 231.36787933 -212.48884583 231.97512817 C-210.62704301 233.83139569 -208.7617696 235.68412927 -206.89634705 237.53675842 C-205.62267694 238.80540515 -204.34923733 240.07428333 -203.07603455 241.34339905 C-199.97712661 244.43136396 -196.87510404 247.51616771 -193.77134705 250.59925842 C-189.07542431 246.67579222 -184.62560588 242.59639766 -180.31091309 238.25907898 C-179.70056636 237.64958668 -179.09021964 237.04009438 -178.46137756 236.41213262 C-176.43545067 234.38784087 -174.41309712 232.36001804 -172.39073181 230.33216858 C-170.93180468 228.87295912 -169.47265682 227.41397033 -168.01330566 225.95518494 C-164.06532314 222.00748863 -160.12042553 218.05672268 -156.1760838 214.10538912 C-152.04857593 209.97161844 -147.91822489 205.84069055 -143.78817749 201.7094574 C-135.97364064 193.89181585 -128.16165583 186.07162928 -120.35058969 178.25052011 C-111.45535627 169.34409878 -102.55727394 160.44052602 -93.65895379 151.53718877 C-75.3599181 133.22770821 -57.06445445 114.91466183 -38.77134705 96.59925842 C-39.70419617 95.49965831 -40.63869881 94.40146085 -41.5738678 93.30383301 C-42.09408571 92.69211967 -42.61430363 92.08040632 -43.15028572 91.45015621 C-45.72716043 88.5079284 -48.48626095 85.76107412 -51.26353455 83.00941467 C-51.85433807 82.42002609 -52.4451416 81.83063751 -53.05384827 81.22338867 C-54.91565108 79.36712115 -56.78092449 77.51438758 -58.64634705 75.66175842 C-59.92001715 74.3931117 -61.19345676 73.12423352 -62.46665955 71.8551178 C-65.56556748 68.76715288 -68.66759006 65.68234913 -71.77134705 62.59925842 C-77.65696651 67.48104853 -83.04951605 72.74808658 -88.43858337 78.1688385 C-89.39179963 79.12397756 -90.3452465 80.07888652 -91.29890442 81.03358459 C-93.33882499 83.07664723 -95.37718644 85.12124788 -97.41433144 87.16707802 C-100.63454194 90.4008797 -103.85862511 93.63080188 -107.08328247 96.86016846 C-113.91978152 103.70773024 -120.75201971 110.55953614 -127.58384705 117.41175842 C-134.97767248 124.82761602 -142.37223643 132.2427285 -149.77166575 139.65299529 C-152.97886116 142.86517819 -156.1836018 146.07978445 -159.38649619 149.29625571 C-161.37352009 151.2907194 -163.36259607 153.28312665 -165.35224533 155.27497101 C-166.71803485 156.64353533 -168.08130897 158.01460849 -169.44451904 159.38574219 C-170.2533252 160.19461884 -171.06213135 161.00349548 -171.89544678 161.83688354 C-172.59982282 162.5434802 -173.30419886 163.25007685 -174.02991962 163.97808552 C-176.59558085 166.36657465 -177.61134849 166.58762216 -181.20884705 166.84925842 C-184.77134705 166.59925842 -184.77134705 166.59925842 -186.70884705 165.53675842 C-188.50719547 162.25741718 -188.37658389 160.29120319 -187.77134705 156.59925842 C-186.46456909 154.76464844 -186.46456909 154.76464844 -184.73985291 152.87245178 C-184.10328766 152.17328644 -183.46672241 151.47412109 -182.81086731 150.75376892 C-179.48692285 147.24241708 -176.08914906 143.8142298 -172.6502533 140.41566467 C-171.53311195 139.30420326 -171.53311195 139.30420326 -170.3934021 138.17028809 C-168.04265342 135.83164401 -165.6886615 133.4963081 -163.33384705 131.16175842 C-160.2073228 128.06172213 -157.0840578 124.95845539 -153.9627533 121.85316467 C-152.88012962 120.78298851 -152.88012962 120.78298851 -151.77563477 119.69119263 C-151.11752304 119.03638412 -150.45941132 118.38157562 -149.78135681 117.70692444 C-149.1984639 117.12926834 -148.61557098 116.55161224 -148.01501465 115.95645142 C-146.65874723 114.78318641 -146.65874723 114.78318641 -146.77134705 113.59925842 C-218.05134705 113.59925842 -289.33134705 113.59925842 -362.77134705 113.59925842 C-362.98151203 162.17109737 -362.98151203 162.17109737 -363.1592865 210.74305725 C-363.20921326 220.1240387 -363.20921326 220.1240387 -363.23635864 224.51165771 C-363.25434059 227.58487483 -363.26391109 230.65799638 -363.26846313 233.73126221 C-363.27453665 237.64766167 -363.29480992 241.56374252 -363.32550848 245.48002374 C-363.33434918 246.91964129 -363.33813843 248.35930049 -363.33638632 249.79894412 C-363.33473973 251.73928048 -363.35312258 253.67960343 -363.37261963 255.61984253 C-363.37953308 257.2527988 -363.37953308 257.2527988 -363.38658619 258.91874409 C-363.77134705 261.59925842 -363.77134705 261.59925842 -365.14783001 263.42609692 C-368.19997856 265.63159468 -370.93915464 265.72871057 -374.58384705 265.16175842 C-375.30572205 264.97613342 -376.02759705 264.79050842 -376.77134705 264.59925842 C-377.5449761 261.84900684 -377.8990358 259.40018112 -377.91001225 256.54630661 C-377.91548669 255.74412822 -377.92096113 254.94194984 -377.92660147 254.11546302 C-377.92757958 253.23997817 -377.92855768 252.36449333 -377.92956543 251.46247864 C-377.9369724 250.06077718 -377.9369724 250.06077718 -377.944529 248.63075852 C-377.95991521 245.49233061 -377.9682677 242.35392317 -377.97666931 239.21546936 C-377.98624695 236.96860066 -377.99625696 234.72173377 -378.00666809 232.47486877 C-378.03373559 226.36787393 -378.05473519 220.26087134 -378.07467008 214.1538496 C-378.09651822 207.77433036 -378.12391265 201.39483504 -378.15072632 195.01533508 C-378.19499103 184.30536371 -378.23582361 173.59538555 -378.27403259 162.88539124 C-378.31339711 151.85413149 -378.35482563 140.82288268 -378.39903259 129.79164124 C-378.40175686 129.11165714 -378.40448114 128.43167304 -378.40728796 127.73108336 C-378.4209676 124.31979752 -378.43468784 120.90851184 -378.44842827 117.49722624 C-378.56236344 89.19792647 -378.6691063 60.89860269 -378.77134705 32.59925842 C-386.90840104 32.59925842 -396.04427373 39.0521645 -401.7127533 44.44691467 Z M-235.77134705 232.59925842 C-236.80755981 235.32344677 -237.82546642 238.05228059 -238.83384705 240.78675842 C-239.12839783 241.5556842 -239.42294861 242.32460999 -239.72642517 243.11683655 C-241.93402052 248.82005311 -241.93402052 248.82005311 -240.77134705 254.59925842 C-238.91396389 256.88964658 -236.85416985 258.89297691 -234.70884705 260.91175842 C-232.74947205 262.78863342 -230.79009705 264.66550842 -228.77134705 266.59925842 C-222.17134705 264.28925842 -215.57134705 261.97925842 -208.77134705 259.59925842 C-210.72003993 255.70187266 -212.89590645 253.18384549 -215.92759705 250.17738342 C-216.43053284 249.67253418 -216.93346863 249.16768494 -217.4516449 248.64753723 C-218.51164691 247.58617846 -219.57416193 246.52732424 -220.63902283 245.47084045 C-222.2727475 243.84786718 -223.89547998 242.21444774 -225.5174408 240.57972717 C-226.54935181 239.54913697 -227.58188263 238.51916691 -228.61509705 237.48988342 C-229.10159729 236.99933472 -229.58809753 236.50878601 -230.08934021 236.00337219 C-232.48211386 233.35530463 -232.48211386 233.35530463 -235.77134705 232.59925842 Z " fill="#000000" transform="translate(429.77134704589844,6.4007415771484375)"/>
<path d="M0 0 C2.78864284 2.50816424 3.00578074 4.05715258 3.38768005 7.83288574 C3.40852934 9.40864431 3.41279405 10.98467462 3.40405273 12.56054688 C3.41091599 13.42277359 3.41777924 14.28500031 3.42485046 15.1733551 C3.4431443 18.0219878 3.43927768 20.87007119 3.43359375 23.71875 C3.43815397 25.69885437 3.44345906 27.67895715 3.44947815 29.65905762 C3.45841407 33.80841503 3.45598022 37.95758003 3.44604492 42.10693359 C3.43454844 47.42695447 3.45477479 52.74631228 3.48396206 58.06624603 C3.50229753 62.15488917 3.502037 66.24337259 3.49632454 70.33204651 C3.49617103 72.29367504 3.50223953 74.2553142 3.51461601 76.21690369 C3.52947597 78.95817838 3.51888643 81.6982174 3.50170898 84.43945312 C3.51137695 85.25100357 3.52104492 86.06255402 3.53100586 86.8986969 C3.48697607 90.25025891 3.23947865 92.59807586 1.50941467 95.50169373 C-2.11889252 97.66806164 -5.54692498 97.56608392 -9.65234375 97.53344727 C-10.52432404 97.54206284 -11.39630432 97.55067841 -12.29470825 97.55955505 C-15.17594109 97.5822509 -18.05620423 97.57546999 -20.9375 97.56640625 C-22.94002574 97.57164 -24.942549 97.57791556 -26.94506836 97.58518982 C-31.14155683 97.59560053 -35.33770634 97.59102251 -39.53417969 97.57641602 C-44.91488008 97.5592217 -50.2945133 97.58272813 -55.6750946 97.61790562 C-59.81009004 97.63985328 -63.94482904 97.6384446 -68.0798645 97.6301403 C-70.06382417 97.62931945 -72.04780241 97.63620842 -74.03170776 97.65091133 C-76.80436049 97.66830999 -79.57508168 97.65385473 -82.34765625 97.63110352 C-83.57900803 97.64864182 -83.57900803 97.64864182 -84.8352356 97.66653442 C-88.76011338 97.60092573 -90.59623605 97.37237032 -93.52905273 94.66758728 C-95 92 -95 92 -95.1875 88.6875 C-92.65472516 80.82256761 -85.0436719 74.89457069 -79.29223633 69.14697266 C-78.55636795 68.40774567 -77.82049957 67.66851868 -77.06233215 66.90689087 C-74.65484877 64.48998903 -72.2436883 62.07679926 -69.83203125 59.6640625 C-68.14760672 57.97642166 -66.46325628 56.28870687 -64.77897644 54.60092163 C-61.26140701 51.07738567 -57.74179827 47.55590127 -54.22094727 44.03564453 C-49.70655201 39.52135135 -45.19910205 35.0001907 -40.69334888 30.47727394 C-37.2232685 26.99609325 -33.74867117 23.51944853 -30.27277184 20.04407883 C-28.60816604 18.3782922 -26.94518337 16.71088199 -25.28385353 15.04182816 C-22.96713683 12.71534124 -20.64420323 10.39524325 -18.31958008 8.07666016 C-17.63430237 7.38576294 -16.94902466 6.69486572 -16.24298096 5.98303223 C-15.60812271 5.35236847 -14.97326447 4.72170471 -14.31916809 4.07192993 C-13.49766124 3.24960593 -13.49766124 3.24960593 -12.6595583 2.41066933 C-8.41572043 -1.19670736 -5.41655975 -1.37876066 0 0 Z M-17.48786926 30.3523407 C-18.22586006 31.09336784 -18.22586006 31.09336784 -18.97875977 31.84936523 C-19.49584503 32.36469818 -20.0129303 32.88003113 -20.54568481 33.41098022 C-22.26345942 35.1243341 -23.97752764 36.84134331 -25.69140625 38.55859375 C-26.87810347 39.74461799 -28.06494915 40.9304937 -29.25193787 42.1162262 C-31.74275145 44.6055625 -34.23173954 47.0967064 -36.71948242 49.58911133 C-39.91648029 52.7918065 -43.11794527 55.98999263 -46.32078648 59.18684292 C-48.77344703 61.63589866 -51.22373146 64.08732051 -53.67329216 66.53947639 C-54.85317391 67.72002764 -56.03380556 68.89982988 -57.21518135 70.07888603 C-58.86275758 71.72393704 -60.507118 73.37213492 -62.15063477 75.02124023 C-62.64465286 75.5132341 -63.13867096 76.00522797 -63.6476593 76.51213074 C-65.9892566 78.42357201 -65.9892566 78.42357201 -67 81 C-49.18 81 -31.36 81 -13 81 C-13 63.18 -13 45.36 -13 27 C-15.00428321 27 -16.14857277 29.0214868 -17.48786926 30.3523407 Z " fill="#000000" transform="translate(455,361)"/>
</svg>
